<svg width="97" height="75" viewBox="0 0 97 75" fill="none" xmlns="http://www.w3.org/2000/svg">
<path d="M19.1506 31.8868L56.785 14.983C57.2947 14.754 57.8282 14.6406 58.3561 14.6319C58.3425 14.9416 58.3671 15.2509 58.4104 15.5419C58.5523 16.4958 58.9448 17.6116 59.446 18.7852C60.1318 20.3908 61.095 22.2659 62.0849 24.1929C62.5393 25.0774 62.9993 25.9729 63.4406 26.8583C64.2842 28.5505 65.0632 30.2273 65.7948 31.802C66.2578 32.7987 66.7019 33.7545 67.1313 34.6474C67.6758 35.7797 68.1932 36.8021 68.677 37.6258C69.0266 38.2211 69.3946 38.7771 69.7813 39.1991C69.3869 39.7245 68.8595 40.159 68.2217 40.4455L30.5874 57.3493C29.9495 57.6358 29.2744 57.7414 28.6197 57.6872C28.5612 57.1179 28.39 56.4735 28.1772 55.8167C27.8828 54.9079 27.4622 53.842 26.9775 52.6828C26.5953 51.7688 26.1758 50.802 25.7383 49.7938C25.0472 48.201 24.3112 46.5048 23.6066 44.7502C23.2379 43.8321 22.8741 42.8935 22.5147 41.9663C21.7318 39.9463 20.9699 37.9808 20.2252 36.4016C19.6809 35.2474 19.1075 34.2128 18.4887 33.4731C18.3 33.2475 18.0851 33.0237 17.8446 32.8281C18.2017 32.4392 18.6409 32.1158 19.1506 31.8868ZM60.3886 15.2476C60.3827 15.2079 60.3776 15.1699 60.3732 15.1334C61.1276 15.547 61.761 16.2035 62.1437 17.0555L70.232 35.0631C70.5051 35.6711 70.6189 36.3085 70.592 36.9284C70.5309 36.8301 70.4674 36.7251 70.4016 36.613C69.961 35.8629 69.4725 34.901 68.9337 33.7806C68.5293 32.9396 68.094 32.0032 67.634 31.0134C66.8893 29.4112 66.0796 27.6691 65.2305 25.966C64.7599 25.0219 64.2832 24.0941 63.8208 23.1941C62.8504 21.3055 61.9428 19.5391 61.2853 17.9997C60.8009 16.8655 60.4917 15.9407 60.3886 15.2476ZM72.2407 38.8C72.7514 37.3684 72.7291 35.7413 72.0564 34.2437L63.9681 16.236C63.4419 15.0645 62.5922 14.1379 61.5725 13.5175C63.2643 12.4704 65.4492 11.8427 67.6131 11.6381C68.9386 11.5128 70.2174 11.5504 71.3173 11.7307C72.4314 11.9133 73.2937 12.231 73.8417 12.6131C75.074 13.4724 76.1759 14.9725 77.1558 16.9417C78.1283 18.8961 78.9362 21.2212 79.6276 23.6269C79.8257 24.3159 80.049 25.0531 80.2834 25.8266C81.1077 28.5473 82.0678 31.716 82.5377 34.8084C83.1483 38.8269 82.8531 42.2755 80.7752 44.3346C79.5901 45.5089 78.7615 45.6963 78.1895 45.6116C77.5528 45.5173 76.8727 45.0421 76.0993 44.1424C75.4592 43.3978 74.8625 42.4949 74.2374 41.5491C74.1164 41.3659 73.9942 41.1811 73.8705 40.9955C73.3688 40.2431 72.828 39.4566 72.2407 38.8ZM26.2746 56.4331C26.3146 56.5567 26.351 56.674 26.3839 56.7849C25.9025 56.3933 25.5017 55.8848 25.2286 55.2768L17.1403 37.2692C16.7576 36.4172 16.6877 35.5076 16.8796 34.669C16.9039 34.6965 16.929 34.7256 16.9547 34.7563C17.4043 35.2938 17.8903 36.1392 18.4163 37.2547C19.1303 38.7688 19.8479 40.6206 20.615 42.6004C20.9806 43.5439 21.3575 44.5165 21.7506 45.4954C22.4598 47.2614 23.2242 49.0238 23.9272 50.6448C24.3615 51.6461 24.7724 52.5935 25.1324 53.4544C25.612 54.6014 26.0065 55.6055 26.2746 56.4331ZM14.875 34.4922C14.6615 35.6665 14.7897 36.9171 15.3159 38.0886L23.4042 56.0963C24.0769 57.594 25.2784 58.6914 26.6877 59.2605C26.7885 60.1357 27.0171 61.0624 27.2463 61.9372C27.3029 62.153 27.3599 62.3671 27.4164 62.5793C27.7082 63.6748 27.9868 64.7206 28.1182 65.6935C28.277 66.8693 28.1805 67.6934 27.828 68.232C27.5114 68.7158 26.8209 69.2107 25.1559 69.3165C22.2365 69.5021 19.4625 67.432 16.8642 64.3063C14.8647 61.9009 13.1338 59.0784 11.6476 56.655C11.2251 55.9661 10.8224 55.3094 10.4389 54.7037C9.09986 52.5889 7.89852 50.4405 7.08357 48.4154C6.26242 46.3749 5.87303 44.5547 6.04925 43.0628C6.12763 42.3993 6.46293 41.5438 7.06648 40.5896C7.66231 39.6477 8.48362 38.6667 9.45773 37.7592C11.048 36.2776 12.9685 35.0612 14.875 34.4922ZM22.5188 33.3018L55.6054 18.4406C56.2219 18.1637 56.9638 18.4395 57.2526 19.0826L65.4678 37.3727C65.7567 38.0158 65.4701 38.7535 64.8535 39.0305L31.7669 53.8916C31.1504 54.1686 30.4085 53.8928 30.1197 53.2497L21.9045 34.9596C21.6157 34.3165 21.9023 33.5787 22.5188 33.3018ZM54.7859 16.6162L21.6994 31.4774C20.0593 32.2141 19.3459 34.1444 20.0801 35.779L28.2953 54.0692C29.0295 55.7038 30.9463 56.4527 32.5864 55.7161L65.673 40.8549C67.3131 40.1182 68.0265 38.1879 67.2923 36.5533L59.0771 18.2631C58.3428 16.6285 56.426 15.8796 54.7859 16.6162Z" fill="black" stroke="black" stroke-width="2"/>
<rect x="20.3333" y="28.5859" width="49.5909" height="27.7844" rx="8" transform="rotate(-24.1877 20.3333 28.5859)" fill="#4A2C54" stroke="black" stroke-width="2"/>
<path d="M14.3685 50.2377C11.6658 45.9816 9.43463 41.4543 9.85777 37.9941C10.2809 34.5338 15.7396 28.9308 20.9689 28.2468C23.1906 27.9562 25.1557 34.1773 27.5332 40.1042C29.819 45.8027 32.564 51.1702 32.4655 53.1088C32.2646 57.0638 37.3548 64.7278 29.9951 65.218C23.0876 65.6781 17.7468 55.5579 14.3685 50.2377Z" fill="#291530" stroke="black" stroke-width="2"/>
<path d="M85.7178 18.1905C84.3314 13.3431 82.4293 8.66803 79.5617 6.68588C76.694 4.70374 68.8798 5.06237 64.8949 8.51701C63.2019 9.9847 66.547 15.586 69.3982 21.3001C72.1395 26.7941 74.3284 32.4113 75.843 33.6254C78.9329 36.1023 81.2807 44.9981 86.5358 39.8223C91.468 34.9644 87.4506 24.2498 85.7178 18.1905Z" fill="#291530" stroke="black" stroke-width="2"/>
<rect x="28.8653" y="29.1354" width="34.4753" height="19.7904" rx="3" transform="rotate(-24.1877 28.8653 29.1354)" fill="#E7D5ED" stroke="black" stroke-width="2"/>
</svg>
