<svg width="74" height="70" viewBox="0 0 74 70" fill="none" xmlns="http://www.w3.org/2000/svg">
<path d="M39.9376 61.6145H36.095L40.0618 60.9867L39.9376 61.6145ZM41.9763 61.6145L42.1664 60.6536L43.7841 60.3976C43.5681 60.9402 43.0997 61.3989 42.462 61.6145H41.9763ZM41.54 63.8206L42.3692 63.6893C42.4944 63.6695 42.6178 63.6445 42.7393 63.6145H43.9169V66.4015C43.9169 67.4561 42.9823 68.4265 41.681 68.4319H40.8594C40.7502 68.2357 40.7107 68.0134 40.7515 67.807L41.54 63.8206ZM27.8937 61.6145H25.1748L25.0869 61.1703L27.8937 61.6145ZM31.9944 60.2386L24.6735 59.08L24.4409 57.9044C24.6748 57.0032 24.4834 55.9886 23.7357 55.1828L17.8986 48.8917L17.9262 46.7394C20.9187 46.0175 25.3823 45.4348 31.9943 45.4348C39.1454 45.4348 43.9744 46.1169 47.1886 46.931L47.2138 48.8918L41.3766 55.1828C40.6289 55.9887 40.4375 57.0033 40.6714 57.9045L40.4752 58.8964L31.9944 60.2386ZM17.8613 51.792L20.3032 54.4238L17.8318 54.0906L17.8613 51.792ZM15.8885 49.6658L15.8348 53.8422C14.6895 53.8167 13.5798 54.3865 12.9932 55.3947L11.3579 58.2058H6.14224L11.917 49.7125C11.9823 49.6164 12.0144 49.5652 12.0379 49.5277C12.0631 49.4876 12.0783 49.4634 12.1138 49.4168C12.2376 49.2543 12.7775 48.6434 14.2883 47.9472C14.3119 47.9686 14.3347 47.9911 14.3566 48.0147L15.8885 49.6658ZM13.6717 58.2058L14.722 56.4004C14.9199 56.0602 15.3368 55.8236 15.8092 55.8421L15.7788 58.2058H13.6717ZM5.54028 60.2058H10.1944L8.94097 62.3604C8.1871 63.6563 8.53561 65.2568 9.70788 66.1686L12.6178 68.4319H11.5227C11.3725 68.4319 11.2229 68.4183 11.076 68.3913L3.68343 67.0322C2.06794 66.7352 1.4457 65.1133 2.21561 63.981L4.83243 60.1322C5.05804 60.1803 5.29465 60.2058 5.54028 60.2058ZM15.8753 68.4319L10.9358 64.5899C10.5227 64.2686 10.4388 63.7629 10.6697 63.3661L12.5082 60.2058H15.8106C16.0223 61.5217 16.8979 62.5986 18.0718 63.1699V66.4015C18.0718 67.1511 18.2827 67.8418 18.6463 68.4319H15.8753ZM5.44974 55.6672L4.3743 57.249C4.35412 57.0117 4.43124 56.7649 4.63704 56.5431L5.44974 55.6672ZM46.8909 23.7531L47.1621 44.8657C43.757 44.0592 38.8931 43.4348 31.9943 43.4348C25.6524 43.4348 21.1476 43.9623 17.9527 44.6804L18.2215 23.7531C18.2317 22.9581 17.9905 22.2168 17.6396 21.5831C17.4289 21.2026 17.1875 20.7198 17.0009 20.2188C16.81 19.7062 16.7007 19.2382 16.7007 18.8696C16.7007 17.7339 17.1909 11.3668 17.4944 7.54258C17.5739 6.54137 18.494 5.66667 19.7309 5.66667H22.469C23.6813 5.66667 24.5989 6.51392 24.7053 7.50073L25.6493 16.25C25.8769 18.3597 27.7518 19.8696 29.874 19.8696H35.6492C37.8233 19.8696 39.7301 18.2853 39.8862 16.1139L40.501 7.56584C40.5738 6.55466 41.4997 5.66667 42.7432 5.66667H45.3815C46.6184 5.66667 47.5385 6.54137 47.6179 7.54258C47.9215 11.3668 48.4116 17.7339 48.4116 18.8696C48.4116 19.2382 48.3024 19.7062 48.1115 20.2188C47.9249 20.7198 47.6835 21.2026 47.4727 21.5831C47.1218 22.2168 46.8807 22.9581 46.8909 23.7531ZM49.2239 49.6658L50.6844 48.0917C51.4059 48.4074 51.9331 48.7035 52.3079 48.9476C52.8399 49.2942 53.0673 49.5373 53.1108 49.5865L59.2376 58.2058H53.7545L52.1192 55.3947C51.5326 54.3864 50.4229 53.8166 49.2775 53.8422L49.2239 49.6658ZM44.8091 54.4238L47.251 51.7921L47.2805 54.0906L44.8091 54.4238ZM43.7784 56.5809L47.3064 56.1052L47.3334 58.2058H43.746C43.2764 58.2058 42.9366 57.9892 42.7484 57.7114L42.8067 57.4167C42.8849 57.021 43.245 56.6528 43.7784 56.5809ZM45.9169 60.2058H47.241C47.0364 60.774 46.5591 61.2552 45.9169 61.4795V60.2058ZM45.9169 63.5398C47.6312 63.2214 49.0268 61.9154 49.3018 60.2058H52.6042L54.4427 63.3661C54.6735 63.7629 54.5897 64.2686 54.1766 64.5899L49.2371 68.4319H45.3424C45.7061 67.8418 45.9169 67.1511 45.9169 66.4015V63.5398ZM38.7895 67.4189C38.7203 67.7691 38.7154 68.1093 38.7651 68.4319H26.3473C26.397 68.1093 26.3921 67.7691 26.3229 67.4189L25.7133 64.3373L31.838 65.3066L31.9944 65.3313L32.1507 65.3066L39.4354 64.1537L38.7895 67.4189ZM53.6032 68.4319H52.4946L55.4045 66.1686C56.5768 65.2568 56.9253 63.6563 56.1714 62.3604L54.918 60.2058H59.5721C59.9201 60.2058 60.2499 60.1546 60.5561 60.0607L63.3076 63.9315C64.1158 65.0686 63.4925 66.7308 61.845 67.0205L54.0312 68.3946C53.8903 68.4194 53.747 68.4319 53.6032 68.4319ZM24.3609 67.807C24.4017 68.0134 24.3622 68.2357 24.253 68.4319H22.3077C21.0064 68.4265 20.0718 67.4561 20.0718 66.4015V63.6145H21.2495C21.3709 63.6445 21.4943 63.6695 21.6196 63.6893L23.6087 64.0042L24.3609 67.807ZM23.136 61.6145H21.5268C20.8891 61.3989 20.4206 60.9402 20.2046 60.3976L22.9823 60.8372L23.136 61.6145ZM22.3057 57.4167L22.364 57.7113C22.1758 57.9892 21.8359 58.2058 21.3664 58.2058H17.779L17.8059 56.1052L21.334 56.5809C21.8674 56.6528 22.2275 57.021 22.3057 57.4167ZM18.0718 60.6093C17.9894 60.4818 17.922 60.3465 17.8713 60.2058H18.0718V60.6093ZM51.4407 58.2058H49.3336L49.3032 55.8421C49.7756 55.8236 50.1925 56.0602 50.3904 56.4004L51.4407 58.2058ZM53.1036 49.5763L53.1042 49.5772C53.1031 49.5756 53.1027 49.5751 53.1036 49.5763Z" fill="black" stroke="black" stroke-width="2"/>
<path d="M59.8294 63.7652H17.5775C17.4564 63.7652 17.3356 63.7542 17.2166 63.7324L9.63195 62.3408C8.20978 62.0798 7.52592 60.4425 8.34001 59.2475L18.0142 45.0474C18.0796 44.9515 18.1121 44.8998 18.1359 44.8621C18.1615 44.8213 18.1769 44.7968 18.2124 44.7504C18.5424 44.3185 21.7805 40.7681 38.1346 40.7681C46.981 40.7681 52.2815 41.8078 55.3689 42.8519C56.9104 43.3733 57.8946 43.8938 58.4922 44.2824C59.0244 44.6284 59.2519 44.8712 59.2956 44.9205L69.4659 59.1996C70.319 60.3975 69.6311 62.0756 68.1825 62.3298L60.1751 63.7351C60.061 63.7551 59.9453 63.7652 59.8294 63.7652ZM59.2883 44.9103L59.289 44.9111C59.2878 44.9096 59.2875 44.9091 59.2883 44.9103Z" fill="#32183C" stroke="black" stroke-width="2"/>
<path d="M51.5245 56.9478H25.8709C24.7563 56.9478 23.8567 56.0366 23.8711 54.9221L24.3317 19.1321C24.3422 18.3115 24.096 17.5442 23.7356 16.8913C23.5252 16.5101 23.2868 16.0311 23.1032 15.5355C22.9153 15.0287 22.8084 14.5669 22.8084 14.2029C22.8084 13.0626 23.3035 6.64906 23.6073 2.83089C23.6896 1.79661 24.5532 1 25.5964 1H28.8394C29.8608 1 30.718 1.76959 30.8278 2.78504L31.7843 11.6328C32.0038 13.6637 33.7184 15.2029 35.7611 15.2029H42.0477C44.1452 15.2029 45.8865 13.5826 46.0373 11.4904L46.6596 2.85623C46.735 1.81016 47.6056 1 48.6544 1H51.799C52.8422 1 53.7058 1.79661 53.7881 2.83089C54.0919 6.64906 54.5869 13.0626 54.5869 14.2029C54.5869 14.5669 54.48 15.0287 54.2922 15.5355C54.1086 16.0311 53.8702 16.5101 53.6598 16.8913C53.2994 17.5442 53.0532 18.3115 53.0637 19.1321L53.5243 54.9221C53.5387 56.0366 52.6391 56.9478 51.5245 56.9478Z" fill="#2F4762" stroke="black" stroke-width="2"/>
<path d="M38.2907 57.5721L50.0831 55.7095V61.7652C50.0831 62.8698 49.1877 63.7652 48.0831 63.7652H28.1862C27.0817 63.7652 26.1862 62.8698 26.1862 61.7652V55.7095L37.9787 57.5721L38.1347 57.5967L38.2907 57.5721Z" fill="#F7E9FC" stroke="black" stroke-width="2"/>
<path d="M27.8742 57.0191C27.1388 56.903 26.55 56.3951 26.3069 55.7285L37.9787 57.5721L38.1347 57.5967L38.2907 57.5721L49.9625 55.7285C49.7194 56.3951 49.1306 56.903 48.3951 57.0191L38.1347 58.6398L27.8742 57.0191Z" fill="#D9BCE4" stroke="black" stroke-width="2"/>
<path d="M20.2888 43.1608L28.3749 51.8582C28.9697 52.4979 28.516 53.5391 27.6425 53.5391H11.4704C10.5969 53.5391 10.1433 52.4979 10.738 51.8582L18.8241 43.1608C19.2196 42.7353 19.8933 42.7353 20.2888 43.1608Z" fill="#5F3270" stroke="black" stroke-width="2"/>
<path d="M58.5712 43.1608L66.6572 51.8582C67.252 52.4979 66.7983 53.5391 65.9249 53.5391H49.7527C48.8792 53.5391 48.4256 52.4979 49.0203 51.8582L57.1064 43.1608C57.502 42.7353 58.1756 42.7353 58.5712 43.1608Z" fill="#5F3270" stroke="black" stroke-width="2"/>
<path d="M21.8716 51.1632L27.5765 51.9308C28.0003 51.9878 28.341 52.308 28.4241 52.7275L30.4875 63.1389C30.6101 63.7572 30.1369 64.3333 29.5066 64.3333H23.0565C22.8344 64.3333 22.6187 64.2594 22.4433 64.1232L17.0493 59.9362C16.6534 59.6288 16.5461 59.0757 16.7986 58.6426L20.8743 51.6507C21.0777 51.3016 21.4712 51.1093 21.8716 51.1632Z" fill="#5F3270" stroke="black" stroke-width="2"/>
<path d="M55.5237 51.1632L49.8187 51.9308C49.3949 51.9878 49.0543 52.308 48.9712 52.7275L46.9077 63.1389C46.7852 63.7572 47.2583 64.3333 47.8887 64.3333H54.3388C54.5608 64.3333 54.7766 64.2594 54.952 64.1232L60.3459 59.9362C60.7419 59.6288 60.8491 59.0757 60.5967 58.6426L56.521 51.6507C56.3175 51.3016 55.9241 51.1093 55.5237 51.1632Z" fill="#5F3270" stroke="black" stroke-width="2"/>
</svg>
