<svg width="2123" height="663" viewBox="0 0 2123 663" fill="none" xmlns="http://www.w3.org/2000/svg">
<path d="M484.684 91.9529L310.119 67.845C306.968 67.4099 304.217 69.9884 304.448 73.1606L322.109 316.054C322.293 318.581 324.339 320.572 326.871 320.686L483.775 327.764C486.622 327.893 489 325.619 489 322.769V96.9059C489 94.4088 487.158 92.2945 484.684 91.9529Z" fill="black" stroke="black"/>
<path d="M436.776 379.238L394.344 318.148C393.41 316.802 391.876 316 390.238 316H343.615C340.922 316 338.715 318.046 338.626 320.737C335.314 420.858 335.027 618.596 335.002 652.117C335 654.879 337.239 657 340 657H533.185C536.563 657 538.968 653.721 537.955 650.499L526.449 613.927C526.156 612.996 525.597 612.171 524.842 611.554L473.338 569.5C472.175 568.551 471.5 567.129 471.5 565.628V451.101C471.5 449.757 470.959 448.47 469.999 447.53L447 425H521C523.761 425 526 422.761 526 420V408.551C526 406.949 525.232 405.443 523.935 404.503L506.978 392.209C506.335 391.743 505.591 391.437 504.806 391.316L440.12 381.327C438.766 381.118 437.558 380.363 436.776 379.238Z" fill="black" stroke="black"/>
<path d="M199.479 67H341.67C344.364 67 346.574 69.1347 346.667 71.8273L355.31 322.015C355.412 324.958 352.961 327.351 350.021 327.179L172.754 316.807C169.897 316.64 167.763 314.113 168.077 311.268L194.509 71.4522C194.789 68.9181 196.93 67 199.479 67Z" fill="black" stroke="black"/>
<path d="M196.164 364.32L204.815 301.94C205.194 299.209 207.71 297.301 210.441 297.672L341.037 315.432C343.449 315.76 345.272 317.693 345.353 320.126C348.685 420.052 348.973 618.528 348.998 652.117C349 654.879 346.761 657 344 657H145.742C144.614 657 143.519 656.618 142.635 655.917L102.393 624.001C101.197 623.053 100.5 621.61 100.5 620.084V559.2C100.5 557.798 101.089 556.461 102.122 555.514L176.772 487.125C177.569 486.395 178.108 485.426 178.308 484.363L187.5 435.5L161.323 426.183C159.331 425.474 158 423.587 158 421.472V408.551C158 406.949 158.768 405.443 160.065 404.503L177.309 392.001C177.766 391.669 178.164 391.263 178.486 390.799L195.322 366.479C195.768 365.835 196.056 365.096 196.164 364.32Z" fill="black" stroke="black"/>
<path d="M448.502 358.5C446.736 350.5 436.582 330.5 431.725 321.5C438.201 318.333 447.707 313.9 455.125 321.5C462.542 329.1 468.811 370.333 468.369 390H448.502C449.238 382.833 450.268 366.5 448.502 358.5Z" fill="black" stroke="black"/>
<path d="M484.263 348C484.263 337.2 478.377 322.167 475.433 316L484.263 313C486.618 316.5 492.387 326.1 496.625 336.5C500.864 346.9 500.452 378.5 499.716 393H484.263V348Z" fill="black" stroke="black"/>
<path d="M497.897 341.866L480.498 345.956C479.142 346.275 478.184 347.484 478.184 348.877V355C478.184 356.657 479.527 358 481.184 358H498.583C500.24 358 501.583 356.657 501.583 355V344.787C501.583 342.853 499.78 341.424 497.897 341.866Z" fill="black" stroke="black"/>
<path d="M446.391 370.851C446.317 367.719 446.261 363.926 446.318 361.432C446.35 360.011 447.497 359 448.919 359H467.372C468.955 359 470.265 360.229 470.366 361.808L470.83 369.058C470.935 370.691 469.711 372.107 468.08 372.239L449.62 373.744C447.91 373.883 446.432 372.566 446.391 370.851Z" fill="black" stroke="black"/>
<path d="M426.71 340.145C428.145 332.098 427.377 327.037 426.535 324.716C426.296 324.059 426.373 323.282 426.856 322.768C427.796 321.769 429.458 322.396 429.477 323.76C429.567 330.418 429.649 340.016 429.496 343.418C429.265 348.562 427.41 357.215 423.791 365.961C420.172 374.708 422.496 388.27 422.543 389.408C422.559 389.789 422.204 389.936 421.71 389.956C420.354 390.009 419.502 388.632 419.577 387.275C419.967 380.278 420.757 368.976 421.586 366.079C422.746 362.025 424.554 352.235 426.71 340.145Z" fill="black" stroke="black"/>
<path d="M432.513 341.546C433.33 337.226 432.483 328.315 431.863 323.643C431.801 323.175 432.153 322.747 432.625 322.722C433.836 322.658 434.852 323.597 434.869 324.81C434.989 333.018 434.915 347.108 433.815 351.742C432.308 358.095 428.666 366.272 426.624 370.372C424.582 374.473 420.66 375.822 418.548 378.216C416.953 380.024 416.944 385.272 417.163 388.081C417.187 388.383 417.093 388.683 416.896 388.916C416.195 389.743 414.865 389.205 414.962 388.129C415.173 385.783 415.433 383.256 415.624 382.363C415.995 380.633 418.431 375.371 421.819 371.769C425.207 368.167 427.944 359.467 430.009 355.936C432.074 352.404 431.423 347.307 432.513 341.546Z" fill="black" stroke="black"/>
<path d="M436.576 343.611C436.788 340.549 437.481 328.89 437.845 322.701C437.876 322.179 438.16 321.706 438.607 321.429C439.642 320.787 440.934 321.485 440.903 322.697C440.855 324.514 440.729 327.089 440.449 330.289C439.847 337.164 439.917 338.871 438.781 343.494C437.644 348.116 436.996 353.853 436.3 358.452C435.605 363.051 437.626 369.216 437.673 370.354C437.695 370.903 436.641 373.882 435.478 376.971C434.694 379.054 431.824 379.116 431.314 376.966C430.78 374.713 431.776 366.677 433.4 363.169C435.024 359.661 436.298 347.618 436.576 343.611Z" fill="black" stroke="black"/>
<path d="M425.69 347.612C425.546 347.443 425.272 347.446 424.957 347.538C423.976 347.823 423.473 348.928 423.696 349.92C423.779 350.29 423.893 350.559 424.043 350.551C424.484 350.528 425.553 355.033 427.317 354.939C429.081 354.845 429.475 353.683 430.775 353.044C432.074 352.404 433.468 354.041 435.696 354.493C437.924 354.944 437.878 353.806 438.295 353.214C438.713 352.621 438.62 350.345 438.596 349.776C438.573 349.207 436.856 350.439 435.533 350.51C434.21 350.58 434.651 350.557 433.304 350.058C431.958 349.559 431.563 350.721 431.122 350.744L430.528 350.776C429.776 350.816 429.039 350.573 428.469 350.088C427.359 349.146 425.976 347.948 425.69 347.612Z" fill="black" stroke="black"/>
<path d="M442.283 331.902C445.052 329.097 445.4 323.449 445.039 321.792C444.997 321.597 444.845 321.457 444.658 321.388C444.159 321.203 443.578 321.593 443.473 322.118C443.286 323.043 442.873 324.433 442.05 326.212C440.426 329.72 435.227 332.278 433.115 334.671C431.003 337.065 424.922 339.669 422.834 342.632C420.746 345.594 416.686 354.364 414.226 359.057C411.767 363.75 412.187 373.992 411.562 380.298C410.936 386.604 413.235 388.763 414.234 391.561C414.65 392.727 415.294 393.21 415.917 393.347C416.85 393.551 417.459 392.539 417.477 391.58C417.5 390.334 417.437 388.615 417.134 386.845C416.553 383.454 415.368 376.104 414.833 373.851C414.299 371.599 415.412 366.407 415.736 363.539C415.996 361.244 420.701 351.679 423.021 347.184C426.362 342.444 428.985 341.734 431.979 339.294C434.972 336.853 439.313 334.912 442.283 331.902Z" fill="black" stroke="black"/>
<path d="M426.253 372.103C427.723 378.302 429.369 379.693 429.04 382.113C428.98 382.554 428.684 382.923 428.298 383.148C427.459 383.636 426.392 383.312 426 382.434C424.932 380.043 423.455 376.485 422.795 373.998C421.749 370.062 420.797 368.402 420.24 365.58C419.682 362.758 419.402 355.93 420.097 351.331C420.792 346.732 420.442 338.197 420.372 336.49C420.302 334.783 419 324.588 418.953 323.45C418.898 322.093 422.292 323.726 422.636 325.037C423.029 326.537 423.323 328.465 423.226 330.636C422.995 335.78 421.558 343.84 422.79 352.328C424.022 360.817 424.65 365.345 426.253 372.103Z" fill="black" stroke="black"/>
<path d="M408.357 328.5C409.248 327.154 408.744 324.535 408.211 322.844C408.049 322.329 407.56 322 407.021 322C406.296 322 405.709 322.587 405.658 323.311C405.541 324.986 405.196 327.273 404.383 328.5C403.059 330.5 403.059 331.5 402.176 333C401.903 333.464 401.973 334.39 402.212 335.468C402.524 336.873 405.127 336.816 405.708 335.5C407.032 332.5 407.032 330.5 408.357 328.5Z" fill="black" stroke="black"/>
<path d="M421.573 328.63C421.249 327.889 419.246 326.398 417.797 325.411C417.282 325.06 416.603 324.909 416.211 325.403C416.187 325.433 416.164 325.464 416.141 325.497C415.723 326.09 416.722 328.888 417.697 331.117C418.672 333.346 420.901 333.798 423.129 334.249C425.358 334.701 426.24 334.654 427.609 335.722C428.979 336.789 431.208 337.241 432.066 336.625C432.925 336.009 432.902 335.44 433.737 334.255C434.572 333.07 432.762 332.026 431.415 331.527C430.069 331.029 429.651 331.621 427.91 332.284C426.17 332.947 424.8 331.879 424.359 331.903C423.918 331.926 422.061 329.744 421.573 328.63Z" fill="black" stroke="black"/>
<path d="M497.929 180.939C496.184 174.819 484.346 175.566 477.006 176.992C475.719 177.242 474.794 178.347 474.704 179.654L469.393 257.256C469.227 259.677 471.846 261.276 473.904 259.99C484.005 253.678 497.929 244.319 497.929 241.614C497.929 237.636 500.339 189.394 497.929 180.939Z" fill="black" stroke="black"/>
<path d="M427.383 55.4404C419.619 51.212 300.793 49.2114 284.461 49.0159C283.354 49.0027 282.417 49.6023 281.897 50.5794C275.774 62.0808 265 82.7783 265 84.6697C265 86.6191 369.755 97.3573 424.694 102.737C426.238 102.888 427.606 101.836 427.875 100.308C430.527 85.2301 433.547 58.797 427.383 55.4404Z" fill="black" stroke="black"/>
<path d="M377.022 52.7813C377.504 46.3131 377.604 29.8921 376.975 23.6196C376.886 22.7304 377.601 21.9168 378.491 21.9704C379.185 22.0121 379.743 22.5769 379.769 23.2721C379.94 27.9175 379.426 27.6593 380.429 53.0515C380.463 53.9264 379.807 54.6878 378.937 54.7532C377.857 54.8342 376.942 53.8623 377.022 52.7813Z" fill="black" stroke="black"/>
<path d="M373.588 53.106C372.951 46.6525 370.241 30.5452 368.55 24.5258C368.31 23.6691 368.871 22.7089 369.754 22.5658C370.441 22.4544 371.072 22.8911 371.289 23.5478C372.21 26.3404 373.437 26.2895 374.97 36.3694C375.032 36.779 375.003 37.2095 374.912 37.6189C373.938 42.0128 375.345 45.5745 376.97 52.6479C377.165 53.4996 376.647 54.3732 375.804 54.6286C374.759 54.9451 373.694 54.1883 373.588 53.106Z" fill="black" stroke="black"/>
<path d="M387.104 33.7554C386.46 31.55 385.865 29.2333 385.422 27.4112C385.045 25.8629 385.973 24.2535 387.553 24.051C388.172 23.9717 388.658 23.9732 388.767 24.1393C389.099 24.6454 390.429 31.2249 391.094 35.2738C391.759 39.3227 391.094 41.8533 392.425 44.3838C393.755 46.9144 393.755 51.4694 393.422 51.9755C392.557 53.2915 390.489 52.6096 389.91 51.1453C389.329 49.6752 388.734 48.0542 388.434 46.9144C387.769 44.3838 388.434 38.3105 387.104 33.7554Z" fill="black" stroke="black"/>
<path d="M389.44 32.0215C388.334 29.437 388.068 28.9719 386.962 24.7132C386.915 24.535 386.911 24.3441 386.951 24.1613C387.169 23.1476 388.436 22.8604 388.978 23.7149C389.426 24.421 389.944 25.2617 390.502 26.2075C392.276 29.2127 393.934 31.2961 395.2 33.4427L395.2 33.4427C396.467 35.5893 397.481 37.3065 398.864 40.3747C400.247 43.443 400.298 48.6069 400.842 51.3405C401.385 54.0741 399.764 53.8655 399.627 54.3579C399.49 54.8503 398.207 49.4147 397.838 48.0637C397.469 46.7127 396.086 43.6445 394.761 41.0371C393.436 38.4297 390.569 34.6605 389.44 32.0215Z" fill="black" stroke="black"/>
<path d="M405.527 33.4999C406.37 31.9093 406.498 29.5091 406.252 27.587C406.078 26.2313 406.987 24.3265 408.176 24.9999C409.059 25.4999 408.618 28.4999 408.176 31.9999C407.735 35.4999 406.41 36.4999 405.527 39.4999C404.644 42.4999 406.41 43.4999 406.852 45.4999C407.293 47.4999 406.852 49.9999 406.41 52.9999C406.238 54.1718 405.778 54.6761 405.266 54.8271C404.313 55.1086 403.761 53.905 403.761 52.9114V51.4999C403.761 50.4999 404.644 46.9999 403.761 43.9999C402.878 40.9999 404.203 35.9999 405.527 33.4999Z" fill="black" stroke="black"/>
<path d="M399.771 31.25C399.771 28.2821 399.584 26.065 399.337 24.5985C399.222 23.9178 399.876 23.2481 400.542 23.427C400.827 23.5035 401.051 23.7218 401.142 24.0023C401.474 25.0258 402.078 26.6449 402.64 27.4C403.46 28.5 403.46 31.25 403.05 36.2C402.64 41.15 401.411 42.25 401.821 45.55C402.23 48.85 401.821 50.5 401.821 52.15C401.821 53.8441 399.578 53.5251 399.226 51.8679C399.123 51.384 399.029 50.9173 398.951 50.5C398.541 48.3 401.001 43.35 401.001 40.05C401.001 36.75 399.771 35.65 399.771 31.25Z" fill="black" stroke="black"/>
<path d="M360.5 40.5C361.689 36.3102 361.849 27.1207 358.837 23.731C358.359 23.193 357.608 23.0529 356.894 23.1489L345.6 24.67C344.111 24.8705 343 26.1402 343 27.6423V50.7769C343 51.1054 351.441 51.8194 357.139 51.9846C358.93 52.0365 360.251 50.449 360.089 48.6649C359.852 46.0413 359.802 42.9585 360.5 40.5Z" fill="black" stroke="black"/>
<path d="M361.906 43.9881C362.088 43.7732 362.358 43.451 362.694 43.0549C364.673 40.7242 363.66 33.8207 360.693 33.3674C351.633 31.9831 341.293 30.6076 340.799 30.2552C339.9 29.6152 339.595 42.3593 339.195 42.8345C338.794 43.3098 360.304 45.8891 361.906 43.9881Z" fill="black" stroke="black"/>
<path d="M370.649 40C370.133 40 369.818 39.7725 369.626 39.4059C368.964 38.1452 370.325 36.7954 371.716 36.4936C373.299 36.1504 375.056 35.7523 375.947 35.5001L375.947 35.5C377.713 35.0001 377.713 35 379.92 35C382.128 35 383.011 34.0001 383.894 33.0001C384.777 32.0001 385.66 31.5001 386.984 31.5001C388.309 31.5001 391.399 31.0001 394.49 31.5001C397.58 32.0001 397.139 33.5001 397.58 34.0001C398.022 34.5001 396.697 38 395.814 38.5C394.931 39 392.724 38.5 390.958 38C389.192 37.5 387.426 34.5 386.101 35C384.777 35.5 380.803 38 380.362 38C379.92 38 377.271 38 375.505 38.5C373.739 39 371.973 40 370.649 40Z" fill="black" stroke="black"/>
<path d="M409.501 32C410.7 31.6604 410.287 30.8163 409.775 30.2631C409.603 30.0778 409.386 29.9442 409.158 29.8348C408.022 29.2887 406.04 28.3603 405.086 28C403.761 27.5 401.995 27.5 399.788 27C397.58 26.5 394.048 25.5 391.399 24C388.75 22.5 384.335 24.5 383.894 26C383.452 27.5 384.335 29 385.218 29C386.101 29 390.958 28.5 392.282 28.5C393.607 28.5 394.931 28.5 397.139 29C399.346 29.5 400.671 31 402.878 32C405.086 33 407.735 32.5 409.501 32Z" fill="black" stroke="black"/>
<path d="M491.143 454.203L496.647 423.469C496.831 422.443 496.042 421.5 495 421.5H485.376C483.984 421.5 482.775 422.458 482.456 423.813L479.207 437.62C479.072 438.194 478.775 438.712 478.345 439.115C469.8 447.144 453.449 462.441 451.5 464C449.858 465.313 450.35 481.765 451.04 494.162C451.19 496.846 454.522 497.943 456.262 495.894L490.476 455.617C490.819 455.213 491.049 454.725 491.143 454.203Z" fill="black" stroke="black"/>
<path d="M456.909 439.366L463.416 422.585C464.179 420.618 462.73 418.5 460.621 418.5H441C437.5 418.5 444.5 432 444.5 433.5C444.5 434.412 448.735 437.884 452.377 440.669C453.942 441.865 456.197 441.202 456.909 439.366Z" fill="black" stroke="black"/>
<path d="M518.15 520.603C501.35 530.915 470.716 549.611 460.995 555.182C459.422 556.083 458.579 558.285 459.232 559.975L462.688 568.92C463.374 570.695 465.519 571.392 467.116 570.358L522.181 534.725C522.521 534.506 522.901 534.357 523.3 534.288L570.507 526.122C572.095 525.847 573.616 526.876 573.952 528.451L581.758 565C581.836 565.362 581.979 565.706 582.182 566.016L600.255 593.645C601.177 595.055 600.758 596.947 599.327 597.836L578.145 610.995C577.337 611.497 576.815 612.346 576.738 613.294C575.695 626.061 573.735 649.464 573.35 651.71C572.995 653.776 582.545 652.95 589.038 652.058C590.425 651.867 591.471 650.718 591.566 649.321L593.31 623.501C593.373 622.565 593.87 621.713 594.654 621.197L620.769 604.012C622.041 603.175 622.484 601.518 621.799 600.158L601.936 560.679L582.753 514.131C582.236 512.874 580.938 512.123 579.59 512.299L519.318 520.192C518.9 520.247 518.51 520.383 518.15 520.603Z" fill="black" stroke="black"/>
<path d="M532.671 573.36L483.035 586.816C480.449 587.517 480.009 590.998 482.339 592.32L496.611 600.42C497.479 600.913 498.536 600.941 499.429 600.496L529.133 585.704C529.992 585.276 531.004 585.285 531.855 585.728L543.361 591.714C545.005 592.569 545.488 594.695 544.375 596.176L534.521 609.301C534.181 609.754 533.976 610.294 533.93 610.859L530.764 649.757C530.622 651.504 532.001 653 533.754 653H553.014C554.849 653 556.254 651.368 555.981 649.553L551.153 617.487C551.054 616.827 551.178 616.152 551.505 615.57L562.648 595.751C563.412 594.392 563.008 592.674 561.717 591.798L535.14 573.773C534.416 573.282 533.515 573.132 532.671 573.36Z" fill="black" stroke="black"/>
<path d="M475 543H472C470.343 543 469 544.343 469 546V567.901C469 570.189 471.457 571.635 473.457 570.524L476.457 568.857C477.409 568.328 478 567.324 478 566.235V546C478 544.343 476.657 543 475 543Z" fill="black" stroke="black"/>
<path d="M496 577C494.505 576.103 491.241 578.13 488.714 580.115C487.439 581.117 487.346 582.97 488.412 584.192L505.122 603.348C506.174 604.553 507.986 604.721 509.242 603.73L513.956 600.008C515.328 598.925 515.491 596.907 514.3 595.627C507.87 588.714 497.779 578.068 496 577Z" fill="black" stroke="black"/>
<path d="M573.25 647.5H591.25C592.493 647.5 593.5 648.507 593.5 649.75C593.5 650.993 592.493 652 591.25 652H573.25C572.007 652 571 650.993 571 649.75C571 648.507 572.007 647.5 573.25 647.5Z" fill="black" stroke="black"/>
<path d="M557.95 641.75L559.667 650.334C559.874 651.368 559.526 652.437 558.723 653.119C556.614 654.909 553.445 657.352 551.5 658C548.5 659 526.5 658 525 658C523.934 658 525.944 647.223 527.458 640.024C527.764 638.57 529.097 637.574 530.579 637.675L555.211 639.345C556.562 639.436 557.684 640.422 557.95 641.75Z" fill="black" stroke="black"/>
<path d="M541.576 595.273L541.717 594.85C541.886 594.342 541.711 593.784 541.283 593.463C540.633 592.975 540.618 592.005 541.253 591.498L550.862 583.81C551.846 583.023 553.216 582.935 554.293 583.589L564.211 589.61C565.515 590.402 566.017 592.046 565.378 593.432L561.651 601.505C561 602.917 559.377 603.597 557.914 603.072L542.713 597.615C541.761 597.273 541.256 596.233 541.576 595.273Z" fill="black" stroke="black"/>
<path d="M597.157 594.024L597.08 593.891C596.514 592.899 596.97 591.636 598.039 591.235L613.617 585.394C614.992 584.878 616.537 585.433 617.27 586.706L624.306 598.927C625.005 600.14 624.772 601.674 623.745 602.625L614.025 611.625C612.881 612.685 611.114 612.69 609.963 611.637L596.221 599.073C595.37 598.296 595.524 596.915 596.524 596.343C597.339 595.878 597.622 594.839 597.157 594.024Z" fill="black" stroke="black"/>
<path d="M526.16 532.978L522.61 520.197C522.25 518.899 521.067 518 519.72 518H518.36C517.798 518 517.247 518.157 516.773 518.46C515.318 519.393 513.174 520.825 512.5 521.5C511.818 522.182 515.69 530.179 518.602 535.828C519.315 537.211 521.137 537.552 522.333 536.556C522.761 536.199 523.305 536 523.863 536C525.44 536 526.582 534.497 526.16 532.978Z" fill="black" stroke="black"/>
<path d="M331 21V52.0435L300.333 55L299 21H331Z" fill="black" stroke="black"/>
<path d="M194.5 332C191.466 329.345 192.088 321.385 192.871 317.157C192.942 316.772 193.281 316.5 193.673 316.5C194.13 316.5 194.5 316.869 194.5 317.326V325.5C194.5 330.5 201 332 201.5 333C202.4 334.8 200.497 336.573 198.863 335.4C197.308 334.284 195.755 333.098 194.5 332Z" fill="black" stroke="black"/>
<path d="M190 345C186.459 340.75 183.701 325.736 182.421 316.335C182.179 314.558 183.858 312.564 185.244 313.702C185.496 313.908 185.61 314.17 185.5 314.5C185 316 188.5 338.5 192 343C195.5 347.5 209.5 351.5 210.5 352.5C210.622 352.622 210.699 352.831 210.74 353.105C211.127 355.72 207.343 356.091 205.382 354.317C205.252 354.2 205.125 354.094 205 354C203 352.5 196 351 190 345Z" fill="black" stroke="black"/>
<path d="M178 334C173.023 331.677 171.371 323.23 171.048 317.278C170.954 315.544 172.525 314.254 174.237 314.54C175.773 314.796 176.823 316.231 176.623 317.775C176.317 320.143 176 322.896 176 324C176 326 180 328 184 331C188 334 191 334 196 335.5C198.3 336.19 201.26 336.693 203.837 337.027C205.204 337.204 205.607 339.107 204.402 339.777C204.141 339.922 203.844 339.979 203.549 339.938C197.182 339.054 183.858 336.734 178 334Z" fill="black" stroke="black"/>
<path d="M186.484 109.644L217.895 121.744C219.142 122.224 219.921 123.471 219.805 124.802L218.435 140.632C218.253 142.734 216.016 143.997 214.123 143.066L173.226 122.961C172.688 122.696 172.241 122.277 171.944 121.756L136.159 59.0822C135.478 57.8884 135.695 56.384 136.686 55.4315L159.266 33.7352C160.157 32.8794 160.432 31.5651 159.959 30.4239L150.318 7.14803C149.5 5.17274 150.952 3 153.09 3H180.764C182.344 3 183.653 4.22157 183.746 5.79867C184.359 16.1839 184.989 33.1829 183.571 35.5226C182.128 37.9055 167.159 51.0138 158.291 58.6173C157.181 59.5687 156.918 61.1766 157.665 62.433L184.983 108.378C185.327 108.957 185.856 109.402 186.484 109.644Z" fill="black" stroke="black"/>
<path d="M223.651 54.9118L216.64 73.2189C215.866 75.2386 217.419 77.3884 219.579 77.2886L244.638 76.1321C246.24 76.0582 247.5 74.7383 247.5 73.1353V65.5983C247.5 64.5992 247.997 63.6657 248.826 63.1084L276.674 44.3916C277.503 43.8343 278 42.9008 278 41.9017V5.5C278 3.84315 276.657 2.5 275 2.5H250.989C249.153 2.5 247.748 4.13424 248.023 5.94942L252.21 33.5875C252.387 34.7519 251.865 35.9119 250.877 36.5532L224.819 53.4684C224.287 53.8139 223.878 54.3192 223.651 54.9118Z" fill="black" stroke="black"/>
<path d="M143.504 173.066L187.973 198.139C188.917 198.671 189.5 199.67 189.5 200.753V228.775C189.5 231.371 186.427 232.742 184.496 231.008L146.648 197.031C145.928 196.384 144.939 196.125 143.994 196.335L112.04 203.436C110.583 203.759 109.585 205.106 109.7 206.594L112.936 248.664C112.978 249.211 113.169 249.736 113.489 250.182L166.638 324.298C167.182 325.056 167.342 326.023 167.072 326.915L156.686 361.233C156.284 362.562 156.846 363.994 158.046 364.693L200.134 389.245C201.977 390.32 202.14 392.922 200.444 394.219L180.329 409.602C179.25 410.426 177.756 410.428 176.681 409.598C159.536 396.37 128.614 372.158 129 371C129.388 369.837 135.438 344.176 138.695 330.301C138.889 329.473 138.735 328.619 138.249 327.921C120.514 302.416 86.2887 253.183 85.5 252C84.7309 250.846 81.7435 211.089 80.1811 189.064C80.0761 187.584 81.0702 186.26 82.5178 185.936L141.375 172.752C142.099 172.59 142.858 172.702 143.504 173.066Z" fill="black" stroke="black"/>
<path d="M43.4333 511.271L156.408 523.876C158.793 524.142 159.916 526.963 158.365 528.795L146.507 542.81C145.876 543.556 144.921 543.948 143.948 543.861L64.2419 536.701C62.9135 536.582 61.6658 537.354 61.1798 538.596L44.1744 582.054C44.0589 582.35 43.9909 582.661 43.9729 582.978L41.0144 635.246C41.0048 635.415 41.0096 635.585 41.0286 635.753L43.6222 658.663C43.8236 660.442 42.4317 662 40.6412 662H9.1012C7.2273 662 5.81183 660.303 6.16212 658.462C7.81659 649.767 10.4548 636.894 11.5 635.5C12.6935 633.909 16.9535 597.563 18.9673 579.297C18.9896 579.094 19.0316 578.902 19.0942 578.709L40.2463 513.33C40.685 511.974 42.017 511.113 43.4333 511.271Z" fill="black" stroke="black"/>
<path d="M156 471.5C159.776 457.427 175.849 458.056 186.653 460.941C188.75 461.501 189.102 464.179 187.323 465.424C186.792 465.796 186.145 465.965 185.5 465.9L172.138 464.564C171.718 464.522 171.293 464.571 170.909 464.748C169.899 465.21 167.738 466.319 164 468.5C158 472 159 473.5 159 482.5V499C159 500.5 149.5 506.5 145.5 510C144.851 510.568 144.781 511.283 145.13 512.085C146.253 514.667 145.104 517.871 143 516C138.5 512 142.5 505.5 149.5 501.5C156.5 497.5 150.5 492 156 471.5Z" fill="black" stroke="black"/>
<path d="M173.5 452C174.928 445.929 182.308 446.049 186.958 447.093C187.918 447.309 188.62 448.101 188.813 449.067C189.159 450.797 187.768 452.386 186.006 452.285C183.472 452.141 180.56 452 179 452C176 452 175 459 173.5 465.5C172 472 172 471.5 173.5 478C174.5 482.5 170 487 168 491.5C166 496 168 503 166.5 504C166.253 504.165 165.945 504.346 165.602 504.535C163.716 505.574 161.546 504.103 161.786 501.962C162.067 499.456 162.589 496.506 163.5 494C165.5 488.5 168.5 484.5 168 478C167.5 471.5 171.5 460.5 173.5 452Z" fill="black" stroke="black"/>
<path d="M163 440C159.261 431.161 163.379 426.945 166.714 424.838C168.345 423.807 170.986 424.563 171.783 426.32C172.915 428.815 173.604 431.465 172 432C169 433 170 436 170 441.5C170 447 175 448 178 450.5C181 453 180.5 460.5 179.5 463C178.5 465.5 178 472 179.5 474C181 476 182.5 478.5 185 480.5C187.5 482.5 186 488.5 185 488C184 487.5 178 481 175 477C172 473 178 465 176.5 461C175 457 168.5 453 163 440Z" fill="black" stroke="black"/>
<path d="M4.58155 638.272L1.52042 658.552C1.2465 660.367 2.65159 662 4.48681 662H46.6562C48.4414 662 49.8316 660.451 49.6387 658.676L47.7677 641.462C47.6123 640.033 46.4645 638.915 45.0314 638.797L7.79417 635.73C6.22135 635.601 4.81709 636.712 4.58155 638.272Z" fill="black" stroke="black"/>
<path d="M64.306 542.027L63.7637 543.22C63.0694 544.747 61.2576 545.408 59.7428 544.687L33.3051 532.098C31.9764 531.465 31.3028 529.962 31.7149 528.549L37.2861 509.448C37.6977 508.036 39.0715 507.131 40.5307 507.31L60.4456 509.748C61.6823 509.9 62.6967 510.8 62.9942 512.01L69.2066 537.273C69.6102 538.915 68.3676 540.5 66.6772 540.5C65.6558 540.5 64.7286 541.097 64.306 542.027Z" fill="black" stroke="black"/>
<path d="M112.1 540.95L134.279 519.198C135.036 518.455 136.128 518.168 137.153 518.441L138.325 518.753C140.476 519.327 141.275 521.961 139.805 523.633L119.258 547C118.255 548.141 116.558 548.352 115.306 547.491L112.501 545.564C110.946 544.494 110.753 542.271 112.1 540.95Z" fill="black" stroke="black"/>
<path d="M125.028 370.691L127.486 362.262C127.802 361.181 128.696 360.367 129.803 360.155L157.576 354.846C159.582 354.462 161.276 356.352 160.675 358.305L160.524 358.797C160.222 359.78 160.674 360.837 161.593 361.297C163.073 362.037 163.158 364.117 161.743 364.975L136.406 380.344C135.274 381.03 133.827 380.894 132.843 380.009L125.901 373.761C125.044 372.99 124.705 371.797 125.028 370.691Z" fill="black" stroke="black"/>
<path d="M133.64 327.926L133.502 327.752C132.116 326.02 133.024 323.435 135.189 322.95L162.324 316.875C163.362 316.643 164.446 316.978 165.172 317.756L169.911 322.833C170.592 323.563 170.866 324.583 170.641 325.555L168.537 334.675C168.223 336.036 167.01 337 165.613 337H136.615C134.736 337 133.32 335.293 133.666 333.447L134.246 330.352C134.407 329.494 134.186 328.608 133.64 327.926Z" fill="black" stroke="black"/>
<path d="M116.5 247.204V242.629C116.5 240.923 115.078 239.56 113.373 239.632L83.8734 240.879C82.2672 240.946 81 242.268 81 243.876V251.192C81 251.721 81.1399 252.241 81.4056 252.699L88.7952 265.425C89.4996 266.638 90.9507 267.201 92.289 266.781L120.113 258.036C122.301 257.348 122.94 254.561 121.27 252.989L117.444 249.388C116.842 248.821 116.5 248.031 116.5 247.204Z" fill="black" stroke="black"/>
<path d="M114 208.175V206.774C114 206.07 114.57 205.5 115.274 205.5C116.488 205.5 117.014 203.962 116.054 203.219L89.0039 182.277C88.3622 181.78 87.5466 181.565 86.7431 181.68L80.0757 182.632C78.5978 182.843 77.5 184.109 77.5 185.602V201.086C77.5 202.496 78.481 203.715 79.8577 204.017L110.752 210.788C112.421 211.154 114 209.883 114 208.175Z" fill="black" stroke="black"/>
<path d="M170.255 228.194C171.803 217.206 174.26 199.622 175.392 191.025C175.69 188.763 178.446 187.346 180.446 188.445L184.133 190.473C185.251 191.088 185.858 192.343 185.646 193.601L179.293 231.298C178.925 233.476 176.409 234.524 174.604 233.25L171.497 231.056C170.578 230.408 170.098 229.308 170.255 228.194Z" fill="black" stroke="black"/>
<path d="M141.221 169.457L137.717 170.708C136.416 171.173 135.6 172.467 135.742 173.842L138.115 196.78C138.313 198.689 140.227 199.924 142.048 199.317L143.151 198.95C143.992 198.669 144.918 198.834 145.61 199.388C147.255 200.704 149.701 199.632 149.849 197.531L151.366 175.905C151.448 174.743 150.849 173.638 149.831 173.073L143.687 169.659C142.933 169.24 142.034 169.166 141.221 169.457Z" fill="black" stroke="black"/>
<path d="M147.233 19.0343C144.764 12.7288 140.81 2.8061 140.025 1.53976C140.006 1.50896 139.987 1.48709 139.961 1.46147C139.612 1.11172 139.865 0.514027 140.36 0.522047L231.5 2L289.5 0.5L416.509 13.0155C419.474 13.3076 420.246 17.276 417.607 18.6585L416.2 19.3952C416.067 19.465 415.939 19.5446 415.818 19.6335L409.292 24.4192C408.777 24.7966 408.156 25 407.518 25H395.5H368.5C368.129 25 367.813 24.6503 367.547 24.113C366.571 22.1361 364.31 20.7979 362.413 21.9219L353.815 27.0171C353.285 27.3314 352.67 27.4746 352.055 27.4273L340 26.5H330.5L302.369 23.5899C301.801 23.5312 301.262 23.312 300.815 22.9579L292.439 16.3267C290.932 15.1337 288.708 15.6456 287.874 17.3774L283.88 25.6715C283.349 26.776 282.205 27.4463 280.982 27.3638C268.149 26.4981 245.758 25 245 25C244 25 238 21 238 19.5V11.7818C238 10.2125 236.792 8.90896 235.227 8.7889C225.835 8.06822 210.808 6.86168 209 6.5C207.3 6.15998 205.239 12.5399 204.044 17.2249C203.704 18.5581 202.536 19.5261 201.16 19.5632L150.111 20.9429C148.845 20.9772 147.695 20.214 147.233 19.0343Z" fill="black" stroke="black"/>
<path d="M164.395 59.7631L165.926 58.3593C167.28 57.1181 167.211 54.9625 165.78 53.8108L150.008 41.1162C148.853 40.1867 147.193 40.2401 146.1 41.2418L131.771 54.3769C130.736 55.3257 130.497 56.8653 131.196 58.0828L142.16 77.1679C142.923 78.495 144.562 79.0354 145.964 78.422L164.221 70.4346C165.931 69.6864 166.55 67.575 165.515 66.022L163.926 63.6387C163.105 62.4079 163.304 60.7627 164.395 59.7631Z" fill="black" stroke="black"/>
<path d="M220.828 51.9155L226.978 47.5746C227.91 46.9165 229.135 46.8443 230.138 47.3884L255.223 60.9938C256.426 61.6462 256.435 63.3697 255.238 64.0343L255.123 64.0985C254.265 64.5752 254.025 65.6997 254.614 66.485C255.404 67.5381 254.673 69.0435 253.357 69.0748L218.69 69.9002C216.635 69.9492 215.14 67.963 215.757 66.0016L219.696 53.4669C219.893 52.8397 220.291 52.2946 220.828 51.9155Z" fill="black" stroke="black"/>
<path d="M1626.29 327.329L1631.95 350.742C1632.27 352.089 1633.48 353.038 1634.86 353.038H2005.58C2007.7 353.038 2009.15 350.902 2008.37 348.932L1999.19 325.78C1998.77 324.714 1997.82 323.986 1996.68 323.898C1915.97 317.706 1749.64 306.877 1715.5 312.038C1683.34 316.9 1646.34 321.558 1628.86 323.642C1627.07 323.855 1625.87 325.579 1626.29 327.329Z" fill="black" stroke="black"/>
<path d="M1646 484.963V348.538C1646 346.881 1647.34 345.538 1649 345.538H1988.34C1990.39 345.538 1991.83 347.544 1991.18 349.487L1980.5 381.538C1972.5 405.705 1956.5 455.038 1956.5 459.038C1956.5 462.99 2036.56 517.384 2078.02 545.048C2078.94 545.668 2079.43 546.734 2079.31 547.845L2068.29 650.857C2068.12 652.382 2066.84 653.538 2065.3 653.538H1582C1580.34 653.538 1579 652.195 1579 650.538V568.613C1579 567.918 1579.24 567.245 1579.68 566.708L1645.32 486.868C1645.76 486.332 1646 485.658 1646 484.963Z" fill="black" stroke="black"/>
<path d="M1995.55 250.591L2001.94 610.03C2001.97 611.873 2003.64 613.25 2005.46 612.932L2055.86 604.09C2057.56 603.791 2058.66 602.116 2058.25 600.434L2027.58 472.884C2027.53 472.654 2027.5 472.419 2027.5 472.182V250.538C2027.5 248.881 2026.16 247.538 2024.5 247.538H1998.55C1996.88 247.538 1995.52 248.914 1995.55 250.591Z" fill="black" stroke="black"/>
<path d="M1993 457.062V440.435C1993 439.277 1993.67 438.222 1994.71 437.725L2028.34 421.776C2030.16 420.912 2032.3 422.055 2032.59 424.05L2036.56 451.072C2036.8 452.71 2035.67 454.234 2034.03 454.476L1996.44 460.03C1994.63 460.298 1993 458.894 1993 457.062Z" fill="black" stroke="black"/>
<path d="M2031 304.795V293.555C2031 293.213 2031.06 292.873 2031.17 292.551L2034.68 282.675C2035.47 280.447 2033.49 278.222 2031.19 278.746L1994.84 287.007C1993.47 287.318 1992.5 288.532 1992.5 289.933V302.263C1992.5 303.829 1993.71 305.132 1995.27 305.254L2027.77 307.786C2029.51 307.922 2031 306.544 2031 304.795Z" fill="black" stroke="black"/>
<path d="M1597.5 522.538C1595.69 524.349 1604.68 534.499 1610.72 540.732C1611.74 541.782 1613.37 541.918 1614.57 541.07L1647.17 517.903C1648.82 516.731 1648.86 514.293 1647.25 513.069L1625.65 496.671C1624.43 495.743 1622.71 495.882 1621.65 497.001C1613.38 505.803 1599.35 520.684 1597.5 522.538Z" fill="black" stroke="black"/>
<path d="M1558.21 474.739L1601.99 518.05C1603.12 519.167 1604.92 519.21 1606.1 518.15L1621.11 504.679C1622.41 503.52 1622.45 501.511 1621.21 500.299L1582.73 462.747C1582.26 462.287 1581.95 461.685 1581.85 461.034L1557.99 297.878C1557.73 296.101 1555.98 294.949 1554.24 295.416L1534.09 300.842C1532.61 301.239 1531.67 302.677 1531.9 304.186L1557.35 473.053C1557.45 473.693 1557.75 474.284 1558.21 474.739Z" fill="black" stroke="black"/>
<path d="M1629.65 312.382L1562.7 362.037C1561.68 362.792 1561.25 364.106 1561.61 365.318L1568.6 388.329C1569.17 390.206 1571.36 391.04 1573.03 390.018L1659.26 337.363C1661.06 336.263 1661.19 333.697 1659.51 332.417L1633.25 312.405C1632.19 311.596 1630.72 311.586 1629.65 312.382Z" fill="black" stroke="black"/>
<path d="M1565.31 342.845C1556.25 345.131 1542.92 348.439 1536.56 349.854C1534.72 350.263 1533.33 352.255 1533.69 354.106L1542.96 402.232C1543.26 403.803 1544.75 404.86 1546.33 404.634L1572.42 400.906C1573.9 400.695 1575 399.429 1575 397.936V395.799C1575 394.712 1575.59 393.71 1576.54 393.18L1593.82 383.535C1595.29 382.714 1595.8 380.844 1594.94 379.392L1576.49 348.067C1575.7 346.723 1573.89 346.39 1572.66 347.341C1570.97 348.637 1568.5 347.459 1568.5 345.333C1568.5 343.662 1566.93 342.436 1565.31 342.845Z" fill="black" stroke="black"/>
<path d="M1577 229.538C1567.2 221.697 1563.96 140.211 1563.52 98.0563C1563.51 96.5878 1564.56 95.3545 1566.01 95.1041L1756.49 62.1458C1758.32 61.8284 1760 63.2405 1760 65.1019V217.854C1760 219.382 1758.89 220.662 1757.37 220.829C1699.67 227.191 1586.85 237.417 1577 229.538Z" fill="black" stroke="black"/>
<path d="M2118.7 289.917L1806.92 282.074C1805.3 282.033 1804 280.702 1804 279.074V72.9313C1804 71.3015 1805.3 69.9698 1806.93 69.9321L2103.16 63.0663C2104.76 63.0292 2106.11 64.2569 2106.22 65.8549L2121.77 286.707C2121.89 288.473 2120.47 289.962 2118.7 289.917Z" fill="black" stroke="black"/>
<path d="M1691 125.038V19.0382C1691 17.3814 1692.34 16.0382 1694 16.0382H1910.16C1911.75 16.0382 1913.07 17.2855 1913.15 18.8777L1918.83 124.878C1918.92 126.595 1917.55 128.038 1915.83 128.038H1694C1692.34 128.038 1691 126.695 1691 125.038Z" fill="black" stroke="black"/>
<path d="M1688.87 275.856L1652.66 225.444C1651.29 223.528 1652.56 220.847 1654.91 220.7L1694.89 218.201C1696.39 218.108 1697.72 219.13 1698.02 220.596L1702.86 244.365C1702.95 244.808 1703.14 245.225 1703.42 245.585L1755.42 313.806C1756.52 315.251 1756.09 317.337 1754.51 318.234L1723.22 335.992C1721.74 336.835 1719.85 336.271 1719.07 334.751L1689.1 276.238C1689.03 276.105 1688.96 275.977 1688.87 275.856Z" fill="black" stroke="black"/>
<path d="M1782.9 210.112L1776.25 113.631C1776.12 111.761 1777.72 110.232 1779.58 110.443L1799.99 112.754C1801.44 112.918 1802.56 114.103 1802.65 115.561L1808.92 223.645C1808.97 224.528 1808.63 225.389 1807.99 225.997L1735.96 294.208C1734.65 295.446 1732.56 295.261 1731.49 293.813L1718.09 275.69C1717.18 274.464 1717.34 272.753 1718.46 271.713L1781.95 212.513C1782.62 211.896 1782.96 211.014 1782.9 210.112Z" fill="black" stroke="black"/>
<path d="M1895.73 339.384L1931.18 265.244C1931.68 264.201 1932.74 263.538 1933.89 263.538H1974.09C1976.21 263.538 1977.66 265.654 1976.88 267.62C1965.39 296.405 1944.31 346.326 1940.5 344.038C1936.94 341.903 1913.61 342.775 1898.64 343.697C1896.34 343.839 1894.73 341.46 1895.73 339.384Z" fill="black" stroke="black"/>
<path d="M1604.94 69.8116L1617.4 91.6115C1618.05 92.7564 1619.38 93.3399 1620.66 93.0494L1630.79 90.7636C1632.51 90.3744 1633.53 88.5872 1632.98 86.9072L1626.5 67.0382L1622.3 49.7983C1621.87 48.0598 1620.03 47.0768 1618.35 47.6921L1592.43 57.1822C1589.98 58.0815 1589.77 61.4734 1592.09 62.668L1603.71 68.6313C1604.22 68.8968 1604.65 69.3069 1604.94 69.8116Z" fill="black" stroke="black"/>
<path d="M1614.21 51.7829C1613.5 49.9502 1612.5 47.3758 1611.71 45.3056C1611.1 43.7023 1612.27 42.0382 1613.99 42.0382C1615.37 42.0382 1616.5 43.1634 1616.5 44.5514V51.3506C1616.5 52.0065 1615.97 52.5382 1615.31 52.5382C1614.82 52.5382 1614.38 52.2395 1614.21 51.7829Z" fill="black" stroke="black"/>
<path d="M1601.09 47.1783L1606.49 55.2726C1606.71 55.5999 1606.47 56.0382 1606.08 56.0382C1606.03 56.0382 1605.97 56.0467 1605.92 56.0635L1600.95 57.722C1600.33 57.9272 1599.67 57.9272 1599.05 57.722L1592.53 55.5494C1591.58 55.2303 1590.84 54.4513 1590.58 53.4763L1589.84 50.681C1589.39 48.9879 1590.48 47.2698 1592.2 46.9564L1598.06 45.8908C1599.24 45.6768 1600.43 46.1828 1601.09 47.1783Z" fill="black" stroke="black"/>
<path d="M1640.49 85.9222C1640.49 85.9468 1640.5 85.9692 1640.5 85.9896C1640.5 86.0184 1640.48 86.0382 1640.45 86.0382C1640.39 86.0382 1640.38 85.9493 1640.44 85.935L1640.49 85.9222C1640.38 85.1669 1639.37 82.4718 1638.37 79.9499C1637.68 78.1828 1638.75 76.2054 1640.61 75.85L1654.82 73.1449C1656.53 72.8177 1658.16 74.0228 1658.36 75.7606L1658.8 79.7201C1658.91 80.7581 1658.24 81.7191 1657.22 81.9598L1640.49 85.9222Z" fill="black"/>
<path d="M1640.44 85.935L1657.22 81.9598C1658.24 81.7191 1658.91 80.7581 1658.8 79.7201L1658.36 75.7606C1658.16 74.0228 1656.53 72.8177 1654.82 73.1449L1640.61 75.85C1638.75 76.2054 1637.68 78.1828 1638.37 79.9499C1639.4 82.5537 1640.44 85.342 1640.5 85.9896C1640.5 86.0184 1640.48 86.0382 1640.45 86.0382V86.0382C1640.39 86.0382 1640.38 85.9493 1640.44 85.935Z" stroke="black"/>
<path d="M1670.67 50.1108L1693.01 45.7175C1695.45 45.2364 1697.38 47.7737 1696.27 50.0027L1693.34 55.8638C1693.12 56.3065 1692.79 56.6864 1692.39 56.9743C1689.42 59.0929 1684.5 62.7925 1684.5 63.5382C1684.5 64.5382 1681 79.5382 1681 80.0382C1681 80.3701 1673.88 79.8069 1668.51 79.3199C1666.85 79.1694 1665.64 77.6871 1665.82 76.0295L1668.27 52.7403C1668.41 51.4312 1669.38 50.3649 1670.67 50.1108Z" fill="black" stroke="black"/>
<path d="M1849.07 321.524C1849.99 320.638 1859.16 288.807 1864.75 269.065C1865.37 266.879 1863.18 264.706 1860.88 265.218L1817.09 274.988C1816.04 275.223 1815.25 276.002 1815.02 277.023L1804.5 324.579C1804.04 326.639 1806 328.638 1808.17 328.326C1823.76 326.085 1848.17 322.397 1849.07 321.524Z" fill="black" stroke="black"/>
<path d="M1867.5 295.538C1868.17 290.88 1867.63 286.826 1866.77 283.769C1866.11 281.441 1867.88 278.708 1870.03 279.819C1871.05 280.344 1871.94 281.064 1872.5 282.038C1874.5 285.538 1870.5 314.538 1870.5 318.538C1870.5 320.732 1867.37 321.484 1864.32 321.633C1862.38 321.728 1861.12 319.765 1861.73 317.915C1863.73 311.825 1866.53 302.354 1867.5 295.538Z" fill="black" stroke="black"/>
<path d="M1884.5 303.538C1883.04 299.519 1878.96 287.131 1876.62 279.935C1876.27 278.872 1876.82 277.729 1877.87 277.336C1879.02 276.907 1880.28 277.547 1880.63 278.721C1882.37 284.669 1885.54 294.609 1888 299.538C1891.5 306.538 1889 322.038 1888 323.538C1887.47 324.331 1885.75 323.858 1884.16 323.157C1882.86 322.584 1882.34 321.08 1882.74 319.721C1884.19 314.857 1885.86 307.269 1884.5 303.538Z" fill="black" stroke="black"/>
<path d="M1901 302.538C1900.68 299.387 1897.04 291.063 1894.12 284.902C1893.17 282.887 1894.67 280.785 1896.61 281.882C1898.23 282.796 1899.86 284.262 1901 286.538C1904 292.538 1914.5 314.538 1914 316.038C1913.71 316.919 1908 318.933 1902.95 320.534C1900.75 321.23 1898.66 319.248 1899.13 316.993C1900.2 311.847 1901.29 305.439 1901 302.538Z" fill="black" stroke="black"/>
<path d="M1906 293.538C1906 291.972 1906.24 290.104 1906.47 288.248C1906.74 286.082 1913.57 277.898 1914 280.038C1914.5 282.538 1908.5 313.038 1906 316.038C1903.5 319.038 1895.5 321.538 1895.5 319.538C1895.5 317.538 1906 298.038 1906 293.538Z" fill="black" stroke="black"/>
<path d="M1793 280.038C1794.7 270.88 1807.54 262.992 1816.58 258.875C1818.34 258.076 1818.55 255.569 1816.9 254.576C1816.33 254.234 1815.62 254.158 1814.99 254.373C1787.91 263.611 1789.19 284.081 1786.25 311.312C1786.11 312.632 1786.84 313.896 1788.06 314.419L1788.28 314.516C1790.39 315.42 1792.71 313.717 1792.53 311.429C1791.85 302.547 1791.36 288.873 1793 280.038Z" fill="black" stroke="black"/>
<path d="M1801 254.538C1801.61 253.008 1806.75 249.234 1811 246.351C1812.5 245.331 1814.5 246.421 1814.5 248.237C1814.5 249.044 1814.07 249.787 1813.4 250.234C1810.72 252.017 1806.7 255.255 1806 258.038C1805 262.038 1803 279.538 1806 287.538C1809 295.538 1814.5 310.538 1814.5 314.538C1814.5 316.017 1813.65 317.482 1812.53 318.745C1811 320.48 1808.5 319.131 1808.5 316.816V308.038C1808.5 304.038 1801 289.038 1799 285.038C1797 281.038 1799 259.038 1801 254.538Z" fill="black" stroke="black"/>
<path d="M1617.5 256.538C1611.24 253.409 1603.84 237.916 1600.71 230.062C1600.57 229.729 1600.3 229.48 1599.95 229.382C1598.63 229.005 1595.46 233.434 1595.5 234.804C1595.5 234.882 1595.5 234.96 1595.5 235.038C1595.5 239.274 1606.62 254.665 1612.81 262.647C1613.25 263.224 1613.89 263.609 1614.61 263.75C1622.28 265.258 1637.98 269.09 1647.5 274.038C1660 280.538 1744 300.038 1748.5 301.038C1753 302.038 1756.5 311.538 1756.5 315.038C1756.5 317.18 1760.6 316.728 1764.09 315.875C1765.71 315.478 1766.56 313.752 1766 312.179C1764.17 306.986 1761.5 299.698 1760.5 298.038C1759 295.538 1719 289.538 1717.5 288.538C1716 287.538 1682 274.538 1671 272.038C1660 269.538 1625.5 260.538 1617.5 256.538Z" fill="black" stroke="black"/>
<path d="M1632 260.038C1628.45 255.696 1621.77 240.777 1618.06 232.344C1617.05 230.023 1611.54 226.529 1609.79 228.36C1609.37 228.796 1608.94 229.345 1608.5 230.038C1606.34 233.439 1615.5 249.038 1619 253.038C1622.5 257.038 1627 263.538 1632 269.538C1637 275.538 1645 288.038 1649 288.038C1653 288.038 1679.5 297.038 1687.5 297.038C1695.5 297.038 1721 291.538 1728 291.538C1735 291.538 1745.5 293.538 1750 297.038C1752.77 299.194 1757.7 306.824 1761.26 312.807C1762.47 314.841 1765.4 314.763 1766.14 312.513C1766.77 310.607 1767.19 308.594 1767 307.038C1766.5 303.038 1760 290.038 1758.5 288.038C1757 286.038 1706.5 287.538 1698 290.038C1689.5 292.538 1679 290.038 1671.5 290.038C1664 290.038 1651.5 280.538 1649 278.038C1646.5 275.538 1636.5 265.538 1632 260.038Z" fill="black" stroke="black"/>
<path d="M1637.5 249.538C1638.87 243.388 1635.71 236.069 1633.2 231.885C1632.59 230.872 1632.89 229.529 1633.92 228.943C1634.81 228.431 1635.95 228.685 1636.51 229.554C1639.32 233.931 1643.5 241.726 1643.5 247.038C1643.5 254.538 1637.5 257.538 1632 268.538C1626.5 279.538 1632 285.038 1632 293.038C1632 300.917 1635.39 306.855 1639.32 313.72L1639.5 314.038C1643.5 321.038 1650 323.038 1650.5 325.038C1650.84 326.411 1647.28 327.146 1644.69 327.432C1643.93 327.516 1643.17 327.27 1642.59 326.776C1638.43 323.27 1630.71 316.359 1627 311.538C1622 305.038 1624.5 291.538 1624.5 280.538C1624.5 269.538 1635.5 258.538 1637.5 249.538Z" fill="black" stroke="black"/>
<path d="M1654 258.038C1656.06 255.561 1657.45 237.405 1657.87 230.024C1657.96 228.369 1659.39 226.984 1660.93 227.584C1663.13 228.438 1665.09 230.437 1664 234.538C1662 242.038 1664.5 246.038 1664 253.038C1663.5 260.038 1658 265.038 1654 274.538C1650 284.038 1648.5 279.538 1648.5 280.538C1648.5 281.538 1646 283.038 1641.5 291.538C1637 300.038 1645 311.538 1646 316.038C1647 320.538 1648.5 327.038 1648.5 329.038C1648.5 331.038 1639.5 324.538 1637 318.038C1634.5 311.538 1633 300.538 1632.5 297.038C1632 293.538 1640.5 279.538 1643 274.538C1645.5 269.538 1651.5 261.038 1654 258.038Z" fill="black" stroke="black"/>
<path d="M1927 57.0382C1924.29 48.0036 1915.05 45.4989 1908.87 43.2559C1907.73 42.8429 1906.99 41.7501 1907.03 40.5395C1907.15 36.4359 1907.64 31.0175 1909 32.0382C1911 33.5382 1923.5 40.0382 1934 54.5382C1941.66 65.1225 1940.48 69.0187 1938.56 69.8731C1938.21 70.0317 1937.83 70.1412 1937.49 70.3413L1934.71 72.0121C1932.79 73.1664 1930.25 71.8842 1929.9 69.669C1929.36 66.3378 1928.45 61.8704 1927 57.0382Z" fill="black" stroke="black"/>
<path d="M1930.5 47.0382C1932.23 42.8791 1925.58 32.163 1920.63 25.3639C1919.54 23.865 1919.98 21.7298 1921.61 20.8419L1921.68 20.8041C1923.01 20.0806 1924.66 20.4548 1925.53 21.6917C1927.98 25.1856 1931.56 30.4899 1933.5 34.0382C1936.5 39.5382 1938.5 53.0382 1930.5 62.5382C1922.5 72.0382 1928.5 67.5382 1924 76.0382C1920.63 82.4106 1919.04 76.6933 1918.58 72.3829C1918.52 71.8314 1918.63 71.2806 1918.89 70.7869C1922.19 64.333 1928.58 51.6517 1930.5 47.0382Z" fill="black" stroke="black"/>
<path d="M1941.5 48.0382C1939.18 57.3366 1945.06 66.6351 1947.51 69.9039C1947.82 70.3116 1948.3 70.5382 1948.81 70.5382C1950.25 70.5382 1951.49 68.5298 1951.34 67.0967C1951.1 64.6821 1951.11 61.872 1948 59.5382C1942 55.0382 1948 44.0382 1949.5 35.0382C1951 26.0382 1948 25.5382 1948 17.0382C1948 12.9076 1945.29 11.3968 1942.35 11.0713C1940.01 10.8129 1939.07 13.7793 1940.31 15.7788C1942.47 19.2542 1944.74 24.4508 1945.5 31.0382C1947 44.0382 1944 38.0382 1941.5 48.0382Z" fill="black" stroke="black"/>
<path d="M1519.94 293.176L1530.44 304.401C1531.1 305.114 1532.08 305.458 1533.04 305.323L1552.32 302.633C1552.77 302.571 1553.19 302.41 1553.57 302.159C1558.82 298.654 1569.6 291.393 1575 287.538C1582 282.538 1564 275.538 1560 274.538C1557.1 273.813 1534.79 282.627 1520.96 288.377C1519.04 289.178 1518.51 291.653 1519.94 293.176Z" fill="black" stroke="black"/>
<path d="M1773.22 138.731L1769.32 129.731C1768.46 127.75 1769.91 125.538 1772.07 125.538H1807.43C1809.59 125.538 1811.04 127.75 1810.18 129.731L1806.28 138.731C1805.81 139.828 1804.73 140.538 1803.53 140.538H1775.97C1774.77 140.538 1773.69 139.828 1773.22 138.731Z" fill="black" stroke="black"/>
<path d="M1780.5 209.177V208.345C1780.5 206.765 1781.72 205.456 1783.3 205.351L1807.6 203.731C1809.22 203.624 1810.63 204.816 1810.79 206.426L1812.38 222.33C1812.46 223.105 1812.23 223.88 1811.75 224.49L1804.88 233.158C1803.85 234.468 1801.94 234.678 1800.64 233.625L1779.26 216.281C1777.82 215.109 1777.78 212.919 1779.18 211.694L1779.48 211.435C1780.13 210.865 1780.5 210.042 1780.5 209.177Z" fill="black" stroke="black"/>
<path d="M1685.82 272.094L1711.71 255.967C1713.01 255.155 1714.72 255.459 1715.66 256.672L1719.05 261.037C1720.07 262.338 1722.01 262.401 1723.11 261.17C1724.13 260.021 1725.91 259.986 1726.98 261.095L1747.57 282.526C1748.66 283.66 1748.69 285.443 1747.63 286.612L1746.13 288.285C1745.43 289.063 1745.18 290.15 1745.48 291.153L1745.59 291.512C1746.09 293.157 1745.1 294.88 1743.43 295.287C1727.74 299.117 1701.25 305.538 1700.5 305.538C1699.76 305.538 1690.33 287.143 1684.72 275.975C1684.03 274.592 1684.5 272.912 1685.82 272.094Z" fill="black" stroke="black"/>
<path d="M1858.89 304.527L1862.51 295.691C1863.31 293.719 1861.61 291.443 1859.36 291.475L1808.62 292.206C1807.2 292.226 1806.07 293.193 1805.89 294.536L1804.71 303.25C1804.46 305.098 1806.08 306.834 1808.03 306.809L1856.33 306.201C1857.48 306.186 1858.48 305.537 1858.89 304.527Z" fill="black" stroke="black"/>
<path d="M1649.5 241.038C1649.24 237.448 1647.47 234.213 1645.7 231.915C1644.66 230.574 1645.16 228.389 1646.79 227.903C1647.53 227.678 1648.34 227.885 1648.83 228.499C1649.5 229.363 1650.46 230.718 1651.5 232.538C1653.5 236.038 1651.5 242.538 1651.5 246.038C1651.5 249.538 1651.5 254.038 1654.5 259.538C1657.5 265.038 1660 268.538 1662 273.538C1664 278.538 1664 283.038 1664 291.038C1664 299.038 1664 301.538 1665.5 307.038C1667 312.538 1666.5 315.038 1668 317.538C1669.5 320.038 1667 321.538 1665.5 321.538C1664.49 321.538 1663.18 320.365 1662.39 319.495C1662.12 319.201 1661.94 318.843 1661.84 318.459C1661.14 315.865 1660 310.738 1660 307.038C1660 302.038 1660.5 284.538 1660 281.538C1659.5 278.538 1652 269.038 1651.5 267.538C1651 266.038 1648 260.538 1648 256.038C1648 251.538 1650 248.038 1649.5 241.038Z" fill="black" stroke="black"/>
<path d="M1728 233.538C1729.87 230.596 1730.66 226.895 1730.92 224.017C1731.09 222.192 1729.39 220.896 1727.6 221.294C1726.89 221.451 1726.25 221.854 1725.91 222.495C1724.28 225.574 1722.64 231.822 1720.5 235.038C1717.5 239.538 1712 237.038 1708 233.538C1705.86 231.669 1703.75 228.306 1702.68 225.753C1702.16 224.491 1701.05 223.432 1699.69 223.287C1695.07 222.793 1688.98 222.199 1690 222.538C1691.5 223.038 1700 230.538 1702 233.538C1704 236.538 1708 240.538 1714 242.038C1720 243.538 1724.5 239.038 1728 233.538Z" fill="black" stroke="black"/>
<path d="M1718.5 236.538C1712.6 234.985 1710.54 230.316 1710.06 226.746C1709.86 225.218 1711.17 224.038 1712.71 224.038H1713.46C1714.93 224.038 1716.18 225.099 1716.52 226.526C1716.77 227.598 1717.1 228.843 1717.5 230.038C1718.5 233.038 1720.5 232.038 1723.5 234.038C1726.5 236.038 1730 235.038 1732 234.038C1734 233.038 1735 230.038 1735.5 228.038C1736 226.038 1739.5 219.538 1740 222.538C1740.5 225.538 1739.5 232.538 1736.5 236.538C1733.5 240.538 1728 239.038 1718.5 236.538Z" fill="black" stroke="black"/>
<path d="M1604.55 254.7C1602.8 255.827 1602.95 253.902 1603.06 252.397C1603.11 251.79 1603.3 251.194 1603.65 250.7C1604.38 249.69 1605.39 248.338 1605.99 247.765C1606.94 246.84 1606.7 244.991 1607.42 244.066C1608.14 243.141 1609.58 243.604 1611.25 244.066C1612.93 244.528 1614.12 242.679 1615.08 240.83C1616.04 238.98 1616.99 238.98 1617.95 238.518C1618.91 238.056 1620.11 236.669 1622.74 237.131C1625.37 237.593 1623.22 241.754 1622.26 242.679C1621.3 243.604 1618.91 244.528 1616.99 245.915C1615.08 247.302 1615.08 247.765 1613.64 247.765C1612.21 247.765 1610.29 248.689 1608.86 250.076C1607.42 251.463 1606.7 253.313 1604.55 254.7Z" fill="black" stroke="black"/>
<path d="M1532.5 274C1527.78 275.814 1526.69 283.526 1529.51 287.058C1530.05 287.738 1530.99 287.881 1531.83 287.673L1557.08 281.464C1559.03 280.984 1559.97 278.758 1558.89 277.059C1556.53 273.331 1553.49 268.891 1552 268C1549.5 266.5 1539 271.5 1532.5 274Z" fill="black" stroke="black"/>
<path d="M1543.5 266C1544.23 266 1544.88 267.12 1545.35 268.334C1545.83 269.584 1545.19 270.94 1544.01 271.578L1536.81 275.477C1535.29 276.302 1533.39 275.669 1532.66 274.096L1532.31 273.347C1531.6 271.795 1532.32 269.959 1533.91 269.331C1537.73 267.818 1542.57 266 1543.5 266Z" fill="black" stroke="black"/>
<path d="M1532.59 260.688C1532.69 261.494 1536.46 263.598 1540.15 265.455C1542.1 266.436 1542.1 269.159 1540.27 270.358C1539.6 270.801 1533.17 267.022 1529.13 264.514C1528.36 264.037 1527.86 263.233 1527.75 262.333L1525.34 241.834C1525.15 240.228 1526.3 238.773 1527.91 238.584C1529.57 238.389 1531.06 239.62 1531.17 241.288C1531.69 248.719 1532.47 259.652 1532.59 260.688Z" fill="black" stroke="black"/>
<path d="M1532 246.5C1533.15 245.637 1534.47 242.123 1535.47 239.105C1536.18 236.99 1534.38 234.5 1532.15 234.5H1523.46C1521.47 234.5 1520.03 236.396 1520.57 238.309L1522.47 245.116C1522.79 246.261 1523.76 247.117 1524.94 247.214C1527.46 247.419 1530.76 247.427 1532 246.5Z" fill="black" stroke="black"/>
<path d="M1520.56 238.396L1508.19 229.08C1506.95 228.147 1506.63 226.417 1507.76 225.35C1510.93 222.344 1517.53 218.686 1528.11 219.022C1538.15 219.34 1544.13 221.683 1547.07 223.641C1548.31 224.462 1548.23 226.109 1547.19 227.162L1536.37 238.109C1535.8 238.679 1535.03 239 1534.23 239H1522.36C1521.71 239 1521.08 238.788 1520.56 238.396Z" fill="black" stroke="black"/>
<path d="M1526.08 214.543C1526.19 216.768 1526.28 219.797 1526.17 221.863C1526.13 222.715 1526.8 223.5 1527.65 223.5C1528.39 223.5 1529 222.895 1529 222.149V214.453C1529 213.651 1528.35 213 1527.55 213C1526.71 213 1526.04 213.706 1526.08 214.543Z" fill="black" stroke="black"/>
<path d="M1513.47 251.89C1513.38 250.245 1511.33 247.463 1509.35 245.071C1507.81 243.21 1504.27 243.686 1503.24 245.869L1497.42 258.178C1496.52 260.081 1497.8 262.295 1499.9 262.452L1506.87 262.974C1508 263.058 1509.08 262.507 1509.63 261.524C1511.34 258.497 1513.59 253.946 1513.47 251.89Z" fill="black" stroke="black"/>
<path d="M1500.92 262.866L1480.01 269.933C1478.71 270.372 1477.23 269.88 1476.83 268.568C1475.5 264.215 1476.78 256.871 1483.71 243.359C1490.22 230.648 1494.17 225.923 1497.12 224.199C1498.28 223.519 1499.65 224.207 1500.26 225.407L1509.64 243.861C1510.06 244.689 1510.07 245.664 1509.68 246.503L1502.67 261.307C1502.33 262.043 1501.69 262.606 1500.92 262.866Z" fill="black" stroke="black"/>
<path d="M1480.58 244.542C1483.37 245.698 1487.12 247.344 1489.59 248.673C1490.6 249.22 1491.95 248.856 1492.44 247.813C1492.88 246.899 1492.49 245.809 1491.57 245.377L1482.16 240.923C1481.18 240.458 1480 240.878 1479.54 241.86C1479.05 242.885 1479.53 244.107 1480.58 244.542Z" fill="black" stroke="black"/>
<path d="M1517.13 257.669C1515.55 256.725 1513.57 255.59 1512.27 254.967C1511.49 254.597 1510.69 254.895 1510.17 255.571C1508.92 257.171 1509.76 259.521 1511.73 259.977L1519.46 261.761C1520.13 261.916 1520.84 261.835 1521.46 261.533L1542.2 251.393C1542.72 251.136 1543.31 251.039 1543.89 251.111L1547.33 251.542C1548.9 251.738 1549.63 253.604 1548.59 254.806C1548.22 255.247 1547.67 255.5 1547.09 255.5H1542.58C1541.59 255.5 1540.67 255.989 1540.11 256.806L1535.5 263.543C1534.88 264.442 1534.8 265.604 1535.29 266.579L1535.86 267.725C1536.49 268.982 1538.02 269.491 1539.27 268.863C1539.75 268.627 1540.13 268.25 1540.38 267.785L1543.15 262.588C1543.67 261.611 1544.69 261 1545.8 261H1547.95C1548.63 261 1549.29 260.768 1549.82 260.343L1556.69 254.851C1558.64 253.288 1557.93 250.163 1555.5 249.595C1550.11 248.34 1544.28 247 1544 247C1543.62 247 1528.64 253.843 1519.96 257.831C1519.04 258.25 1517.99 258.183 1517.13 257.669Z" fill="black" stroke="black"/>
<path d="M1570 302.5V294.55C1570 292.396 1567.8 290.944 1565.82 291.792L1564.82 292.221C1563.72 292.693 1563 293.778 1563 294.978V311C1563 315 1549 320.5 1541.5 325.5C1534 330.5 1531 334 1526.5 339.5C1522 345 1516 358.5 1515 371C1514 383.5 1515.5 389 1519 392C1522.5 395 1534 401.5 1536 404C1538 406.5 1561.5 414.5 1563 416C1564.5 417.5 1580.5 416.5 1587 414.5L1587.09 414.472C1593.55 412.486 1598.52 410.956 1602.5 401.5C1606.5 392 1611 389 1611 387.5C1611 386 1612 377.5 1611 371C1610 364.5 1613 334 1613.5 330C1614 326 1621 320.5 1624 319C1627 317.5 1640 320.5 1646 322C1648.94 322.734 1653.39 324.377 1657.29 325.925C1659.7 326.883 1662.01 324.645 1660.83 322.329C1660.29 321.257 1659.68 320.128 1659 319C1656 314 1625.5 310.5 1621 311C1616.5 311.5 1612 316 1606.5 328.5C1601 341 1604.5 363.5 1606.5 374C1608.5 384.5 1601 391.5 1595.5 401.5C1590 411.5 1572.5 410.5 1568.5 411C1564.5 411.5 1534 398 1526.5 389C1519 380 1530.5 344.5 1534 341C1537.5 337.5 1562.5 320 1563 319C1563.5 318 1570 306 1570 302.5Z" fill="black" stroke="black"/>
<path d="M1582.5 310.5C1585.09 305.312 1577.22 291.528 1574.4 287.244C1573.86 286.435 1572.93 286.095 1571.97 286.255C1569.86 286.607 1568.75 289.015 1569.8 290.887C1571.94 294.715 1574.59 299.989 1576 304.5C1578.5 312.5 1572 316 1568.5 320C1565 324 1558.5 325.5 1552 328C1547.5 330 1559.5 333 1562.5 332C1565.5 331 1579.5 316.5 1582.5 310.5Z" fill="black" stroke="black"/>
<path d="M1570.5 314C1571.71 311.99 1563.86 301.899 1559.96 296.202C1558.87 294.612 1559.83 292.688 1561.75 292.848C1563.43 292.989 1565.23 293.44 1566.5 294.5C1569.5 297 1572 303 1573 307C1574 311 1573.5 326 1570 329.5C1568.66 330.836 1565.83 332.15 1562.77 333.267C1560.36 334.141 1558.49 330.849 1559.5 328.5C1561 325 1569 316.5 1570.5 314Z" fill="black" stroke="black"/>
<path d="M1532.5 381.5C1533.7 376.319 1537.64 356.81 1539.48 347.601C1539.49 347.532 1539.5 347.465 1539.5 347.394C1539.5 346.171 1537.76 345.895 1537.38 347.057C1534.84 354.777 1531.51 364.475 1530 367.5C1527.5 372.5 1524 386.5 1526 389.5C1528 392.5 1562.5 402.5 1569 403C1575.5 403.5 1587 401.5 1589.5 400.5C1592 399.5 1601.5 386.5 1601.5 383C1601.5 379.5 1602 338.5 1601.5 336.5C1601 334.5 1603.5 324 1605 321C1606.5 318 1611 309.5 1615.5 306.5C1618.68 304.377 1642.98 314.359 1658.81 321.421C1661.11 322.447 1663.71 320.346 1663.25 317.87C1663.17 317.437 1663.09 316.98 1663 316.5C1662 311 1639.5 302 1621 300.5C1602.5 299 1601 315 1598 324C1595 333 1598 358.5 1598 362.5C1598 366.5 1599 377.5 1598 385C1597 392.5 1584.5 396.5 1582 398C1579.5 399.5 1545.5 394.5 1542 393.5C1538.5 392.5 1531 388 1532.5 381.5Z" fill="black" stroke="black"/>
<path d="M1532.5 407C1529.3 399.79 1536.68 386.485 1539.74 380.705C1540.52 379.241 1542.15 378.919 1541.63 380.494C1541.49 380.924 1541.29 381.423 1541 382C1539 386 1538 403 1538.5 407C1539 411 1545 417 1546.5 419C1548 421 1568.5 424.5 1573.5 424.5C1578.5 424.5 1587.5 421.5 1589 420.5C1590.5 419.5 1590 404.5 1589 400C1588 395.5 1586 388 1584 384C1582 380 1587 375 1589 378C1591 381 1597 399.5 1597.5 410.5C1598 421.5 1590 424.5 1579 428.5C1568 432.5 1549.5 426 1545 424.5C1540.5 423 1536.5 416 1532.5 407Z" fill="black" stroke="black"/>
</svg>
