<svg width="56" height="72" viewBox="0 0 56 72" fill="none" xmlns="http://www.w3.org/2000/svg">
<path d="M7.68528 68.0172L1.32093 8.86589C1.14369 7.21854 2.33543 5.73942 3.98278 5.56217L43.4017 1.32092C45.0491 1.14367 46.5282 2.33542 46.7054 3.98277L53.0698 63.1341C53.247 64.7814 52.0553 66.2606 50.4079 66.4378L10.989 70.6791C9.34165 70.8563 7.86253 69.6645 7.68528 68.0172Z" fill="black" stroke="black" stroke-width="2"/>
<path d="M11.9794 63.715L6.06619 8.75654C5.88894 7.1092 7.08069 5.63007 8.72804 5.45283L45.2247 1.52599C46.872 1.34875 48.3511 2.5405 48.5284 4.18785L54.4416 59.1463C54.6188 60.7936 53.4271 62.2728 51.7797 62.45L15.2831 66.3768C13.6358 66.5541 12.1567 65.3623 11.9794 63.715Z" fill="#302118" stroke="black" stroke-width="2"/>
<path d="M24.383 35.4583C22.7711 35.0553 16.4913 38.9844 15.8197 42.0067L17.5054 57.5996C17.6861 59.2709 19.2047 60.4676 20.872 60.2524L46.0686 57.0013C47.7202 56.7882 48.8822 55.2706 48.6572 53.6206L47.5543 45.5328C46.3789 44.5253 43.9275 43.6186 43.5245 42.0067C43.0208 39.9918 41.5096 36.4657 37.9835 35.4583C34.4575 34.4508 37.4798 31.4284 37.4798 27.3986C37.4798 25.7349 36.9761 18.3316 36.9761 18.3316C36.9761 18.3316 35.9686 22.3614 30.9314 22.3614C26.9016 22.3614 24.8867 18.8354 24.8867 18.8354C24.8867 18.8354 25.4788 24.9313 24.8867 25.6221C22.8134 28.0409 26.3979 35.962 24.383 35.4583Z" fill="#2F4762" stroke="black" stroke-width="2"/>
<path d="M16.5632 58.0242L11.7557 13.342C11.5784 11.6946 12.7702 10.2155 14.4175 10.0383L40.6408 7.21679C42.2881 7.03954 43.7673 8.2313 43.9445 9.87864L48.7521 54.5609C48.9293 56.2082 47.7375 57.6873 46.0902 57.8646L19.867 60.6861C18.2196 60.8633 16.7405 59.6715 16.5632 58.0242Z" fill="#D9D9D9" fill-opacity="0.25" stroke="black" stroke-width="2"/>
</svg>
