<svg width="83" height="71" viewBox="0 0 83 71" fill="none" xmlns="http://www.w3.org/2000/svg">
<path d="M52.9075 44.2694C52.9075 58.48 41.3875 70 27.1768 70C12.9662 70 1.44618 58.48 1.44618 44.2694C1.44618 30.0587 12.9662 18.5387 27.1768 18.5387C41.3875 18.5387 52.9075 30.0587 52.9075 44.2694Z" fill="black"/>
<path d="M33.6747 39.7032C36.8569 38.4355 38.7132 31.6742 38.9784 30.829C39.4933 29.0513 41.2578 25.9459 44.2721 27.3129C44.4572 27.3968 44.6211 27.5211 44.7821 27.6452C46.6422 29.0784 49.397 28.4852 51.1767 32.9419C53.033 37.5903 53.5945 41.7308 53.3293 45.9566C52.7156 55.7368 50.6762 56.8827 46.5803 61.5637C43.6276 64.9382 40.8347 59.5644 40.5695 55.7612C40.3043 51.958 32.0837 51.1129 28.3711 46.8871C25.7193 43.0838 30.4926 40.971 33.6747 39.7032Z" fill="black"/>
<path d="M5.66432 31.1931C6.50794 27.3968 14.1006 22.335 18.3187 20.2259C21.6932 18.5387 25.0678 18.2012 28.4423 18.5387C30.8917 18.7836 32.0077 20.2287 32.5968 21.8091C32.9799 22.837 32.7945 24.3069 32.1891 25.2216C31.7099 25.9456 30.9549 26.7732 29.7077 27.3968C26.3332 29.084 24.2241 29.9277 24.2241 33.724C24.2241 37.5203 16.6315 37.0985 14.5224 32.0367C12.2686 26.6275 3.74055 39.8501 5.66432 31.1931Z" fill="black"/>
<path d="M11.1479 64.5164C7.77339 62.8291 2.2898 54.3928 1.02436 48.0656C0.602546 42.1602 5.74868 41.1479 9.46065 40.473C12.8352 40.1355 9.61883 44.2693 10.7261 47.222C11.9915 50.5965 20.2591 45.2817 21.2714 49.3311C22.5369 54.3929 19.1624 57.3456 27.5987 58.1892C36.0349 59.0328 29.5981 64.4949 25.9114 67.0472C20.4278 70.8436 14.5224 66.2037 11.1479 64.5164Z" fill="black"/>
<path d="M52.9075 44.2694C52.9075 58.48 41.3875 70 27.1768 70C12.9662 70 1.44618 58.48 1.44618 44.2694C1.44618 30.0587 12.9662 18.5387 27.1768 18.5387C41.3875 18.5387 52.9075 30.0587 52.9075 44.2694Z" stroke="black" stroke-width="2"/>
<path d="M33.6747 39.7032C36.8569 38.4355 38.7132 31.6742 38.9784 30.829C39.4933 29.0513 41.2578 25.9459 44.2721 27.3129C44.4572 27.3968 44.6211 27.5211 44.7821 27.6452C46.6422 29.0784 49.397 28.4852 51.1767 32.9419C53.033 37.5903 53.5945 41.7308 53.3293 45.9566C52.7156 55.7368 50.6762 56.8827 46.5803 61.5637C43.6276 64.9382 40.8347 59.5644 40.5695 55.7612C40.3043 51.958 32.0837 51.1129 28.3711 46.8871C25.7193 43.0838 30.4926 40.971 33.6747 39.7032Z" stroke="black" stroke-width="2"/>
<path d="M5.66432 31.1931C6.50794 27.3968 14.1006 22.335 18.3187 20.2259C21.6932 18.5387 25.0678 18.2012 28.4423 18.5387C30.8917 18.7836 32.0077 20.2287 32.5968 21.8091C32.9799 22.837 32.7945 24.3069 32.1891 25.2216C31.7099 25.9456 30.9549 26.7732 29.7077 27.3968C26.3332 29.084 24.2241 29.9277 24.2241 33.724C24.2241 37.5203 16.6315 37.0985 14.5224 32.0367C12.2686 26.6275 3.74055 39.8501 5.66432 31.1931Z" stroke="black" stroke-width="2"/>
<path d="M11.1479 64.5164C7.77339 62.8291 2.2898 54.3928 1.02436 48.0656C0.602546 42.1602 5.74868 41.1479 9.46065 40.473C12.8352 40.1355 9.61883 44.2693 10.7261 47.222C11.9915 50.5965 20.2591 45.2817 21.2714 49.3311C22.5369 54.3929 19.1624 57.3456 27.5987 58.1892C36.0349 59.0328 29.5981 64.4949 25.9114 67.0472C20.4278 70.8436 14.5224 66.2037 11.1479 64.5164Z" stroke="black" stroke-width="2"/>
<circle cx="31.3713" cy="40.5851" r="24.7307" fill="#2F4762" stroke="black" stroke-width="2"/>
<path d="M37.8692 36.019C41.0514 34.7513 42.9076 27.99 43.1728 27.1448C43.6839 25.3801 45.4266 22.307 48.4007 23.5994C48.6306 23.6994 48.8321 23.8547 49.0335 24.004C50.8926 25.3826 53.6095 24.8463 55.3712 29.2577C57.2274 33.9061 57.789 38.0466 57.5238 42.2724C56.91 52.0526 54.8706 53.1985 50.7747 57.8795C47.822 61.254 45.0291 55.8802 44.7639 52.077C44.4987 48.2738 36.2781 47.4286 32.5655 43.2028C29.9137 39.3996 34.687 37.2867 37.8692 36.019Z" fill="#17351C" stroke="black" stroke-width="2"/>
<path d="M9.85872 27.5089C10.7023 23.7125 18.295 18.6508 22.5132 16.5417C25.8877 14.8544 29.2622 14.517 32.6367 14.8544C34.8768 15.0784 36.0016 16.3062 36.6281 17.7233C37.1751 18.9607 36.9539 20.8155 36.1323 21.8904C35.651 22.5201 34.9504 23.1884 33.9021 23.7125C30.5276 25.3998 28.4186 26.2434 28.4186 30.0398C28.4186 33.8361 20.8259 33.4143 18.7168 28.3525C16.463 22.9432 7.93496 36.1658 9.85872 27.5089Z" fill="#17351C" stroke="black" stroke-width="2"/>
<path d="M15.3423 60.8322C11.9678 59.145 6.48422 50.7086 5.21877 44.3814C4.79696 38.476 9.9431 37.4637 13.6551 36.7888C17.0296 36.4513 13.8132 40.5851 14.9205 43.5378C16.1859 46.9124 24.4535 41.5975 25.4659 45.6469C26.7313 50.7087 23.3568 53.6614 31.7931 54.505C40.2294 55.3486 33.7925 60.8107 30.1058 63.3631C24.6222 67.1595 18.7168 62.5195 15.3423 60.8322Z" fill="#17351C" stroke="black" stroke-width="2"/>
<mask id="mask0_7_36" style="mask-type:alpha" maskUnits="userSpaceOnUse" x="2" y="14" width="56" height="55">
<path d="M55.8549 41.322C55.8549 55.5326 44.3349 67.0526 30.1242 67.0526C15.9136 67.0526 4.39355 55.5326 4.39355 41.322C4.39355 27.1113 15.9136 15.5913 30.1242 15.5913C44.3349 15.5913 55.8549 27.1113 55.8549 41.322Z" fill="black"/>
<path d="M36.6221 36.7558C39.8043 35.4881 41.6606 28.7268 41.9258 27.8817C42.4406 26.1039 44.2052 22.9986 47.2194 24.3655C47.4045 24.4495 47.5685 24.5737 47.7295 24.6978C49.5896 26.131 52.3444 25.5379 54.1241 29.9946C55.9804 34.6429 56.5419 38.7834 56.2767 43.0092C55.663 52.7894 53.6235 53.9354 49.5277 58.6163C46.575 61.9909 43.782 56.6171 43.5168 52.8138C43.2517 49.0106 35.031 48.1655 31.3185 43.9397C28.6667 40.1365 33.4399 38.0236 36.6221 36.7558Z" fill="black"/>
<path d="M8.61169 28.2457C9.45532 24.4494 17.048 19.3876 21.2661 17.2785C24.6406 15.5913 28.0151 15.2538 31.3897 15.5913C33.8391 15.8362 34.9551 17.2813 35.5442 18.8618C35.9273 19.8896 35.7419 21.3595 35.1364 22.2743C34.6573 22.9982 33.9022 23.8258 32.6551 24.4494C29.2806 26.1366 27.1715 26.9803 27.1715 30.7766C27.1715 34.5729 19.5789 34.1511 17.4698 29.0893C15.2159 23.6801 6.68793 36.9027 8.61169 28.2457Z" fill="black"/>
<path d="M14.0953 61.569C10.7208 59.8818 5.23718 51.4454 3.97173 45.1182C3.54992 39.2128 8.69605 38.2005 12.408 37.5256C15.7825 37.1881 12.5662 41.3219 13.6735 44.2746C14.9389 47.6491 23.2065 42.3343 24.2188 46.3837C25.4843 51.4455 22.1098 54.3982 30.546 55.2418C38.9823 56.0854 32.5454 61.5475 28.8588 64.0998C23.3752 67.8962 17.4698 63.2563 14.0953 61.569Z" fill="black"/>
<path d="M55.8549 41.322C55.8549 55.5326 44.3349 67.0526 30.1242 67.0526C15.9136 67.0526 4.39355 55.5326 4.39355 41.322C4.39355 27.1113 15.9136 15.5913 30.1242 15.5913C44.3349 15.5913 55.8549 27.1113 55.8549 41.322Z" stroke="black" stroke-width="2"/>
<path d="M36.6221 36.7558C39.8043 35.4881 41.6606 28.7268 41.9258 27.8817C42.4406 26.1039 44.2052 22.9986 47.2194 24.3655C47.4045 24.4495 47.5685 24.5737 47.7295 24.6978C49.5896 26.131 52.3444 25.5379 54.1241 29.9946C55.9804 34.6429 56.5419 38.7834 56.2767 43.0092C55.663 52.7894 53.6235 53.9354 49.5277 58.6163C46.575 61.9909 43.782 56.6171 43.5168 52.8138C43.2517 49.0106 35.031 48.1655 31.3185 43.9397C28.6667 40.1365 33.4399 38.0236 36.6221 36.7558Z" stroke="black" stroke-width="2"/>
<path d="M8.61169 28.2457C9.45532 24.4494 17.048 19.3876 21.2661 17.2785C24.6406 15.5913 28.0151 15.2538 31.3897 15.5913C33.8391 15.8362 34.9551 17.2813 35.5442 18.8618C35.9273 19.8896 35.7419 21.3595 35.1364 22.2743C34.6573 22.9982 33.9022 23.8258 32.6551 24.4494C29.2806 26.1366 27.1715 26.9803 27.1715 30.7766C27.1715 34.5729 19.5789 34.1511 17.4698 29.0893C15.2159 23.6801 6.68793 36.9027 8.61169 28.2457Z" stroke="black" stroke-width="2"/>
<path d="M14.0953 61.569C10.7208 59.8818 5.23718 51.4454 3.97173 45.1182C3.54992 39.2128 8.69605 38.2005 12.408 37.5256C15.7825 37.1881 12.5662 41.3219 13.6735 44.2746C14.9389 47.6491 23.2065 42.3343 24.2188 46.3837C25.4843 51.4455 22.1098 54.3982 30.546 55.2418C38.9823 56.0854 32.5454 61.5475 28.8588 64.0998C23.3752 67.8962 17.4698 63.2563 14.0953 61.569Z" stroke="black" stroke-width="2"/>
</mask>
<g mask="url(#mask0_7_36)">
<path d="M59.3026 27.4526C58.5258 28.6744 58.1167 27.5908 56.3834 25.4594C56.811 24.6789 57.618 22.8266 57.4256 21.6611C57.1851 20.2043 56.2534 12.8178 57.3785 15.7978C57.7473 16.7746 60.0987 19.7233 61.1879 21.7883C62.2771 23.8533 60.0794 26.2307 59.3026 27.4526Z" fill="black" stroke="black" stroke-width="2"/>
<path d="M40.8859 30.7634C42.2725 32.4685 45.7577 31.9161 47.327 31.4268L43.8106 35.2307C42.3298 34.8612 39.1167 33.7838 38.1104 32.4303C37.1042 31.0769 36.6646 27.5079 36.5706 25.8925C37.4313 26.8057 39.4992 29.0583 40.8859 30.7634Z" fill="black" stroke="black" stroke-width="2"/>
<path d="M51.7492 49.2575C50.9309 47.0902 51.1908 42.0396 53.0153 39.4936C53.535 39.5037 54.832 39.5505 55.8626 39.6567C57.1508 39.7894 54.4168 44.8455 54.4887 46.6755C54.5462 48.1396 56.9601 50.4886 58.1599 51.4801C56.2958 51.4616 52.4038 50.9913 51.7492 49.2575Z" fill="black" stroke="black" stroke-width="2"/>
<path d="M43.2794 42.9083C40.9921 42.4023 39.1775 37.799 41.6721 33.8511C42.2905 32.6518 42.1918 29.9524 43.0413 27.4436C43.8909 24.9349 49.7632 22.283 51.726 23.705C53.6888 25.1269 55.5521 23.8458 60.3272 24.181C64.4184 24.6785 64.9178 32.1108 63.6321 34.3036C62.3464 36.4964 63.4247 38.7574 61.6907 42.1053C59.9567 45.4532 52.3221 46.0063 51.4322 44.5394C50.5424 43.0726 45.5667 43.4143 43.2794 42.9083Z" fill="black" stroke="black" stroke-width="2"/>
<path d="M45.7904 28.175C46.3862 28.4287 49.2412 27.6741 49.7133 25.9045C48.8976 23.6334 46.5408 18.6133 43.6389 16.7018C40.7369 14.7902 36.6564 19.546 34.9789 22.1629C36.2688 21.117 39.3183 19.1126 41.1964 19.462C43.5441 19.8988 45.1947 27.9213 45.7904 28.175Z" fill="black" stroke="black" stroke-width="2"/>
<path d="M62.5525 30.3213C61.9083 30.2549 60.9574 29.3758 60.2414 27.4795C61.4015 25.9065 63.6941 22.5234 63.5835 21.5747C63.4729 20.6259 59.9861 19.4249 58.2565 18.943C59.1374 18.8167 61.3062 18.6582 62.9339 19.0342C64.5616 19.4101 66.3811 19.693 66.6658 20.7204C66.2484 20.9812 63.9899 24.4546 66.2678 24.5851C68.5457 24.7156 68.8276 27.5393 70.0412 29.6605C68.2757 28.2636 66.5984 26.9365 65.7315 27.2638C64.6479 27.6729 63.1966 30.3876 62.5525 30.3213Z" fill="black" stroke="black" stroke-width="2"/>
<path d="M60.6858 38.4943C59.193 37.8198 57.2303 39.1799 57.1999 40.739C58.0181 42.9063 59.276 44.5982 61.1779 46.3563C63.0798 48.1145 64.8251 50.5508 64.7827 51.805C65.2425 50.2901 66.0189 46.881 65.4461 45.3639C64.7301 43.4675 62.5517 39.3375 60.6858 38.4943Z" fill="black" stroke="black" stroke-width="2"/>
<path d="M45.3947 39.757C45.4191 38.5097 47.8753 37.5823 48.6097 37.6146C52.5767 38.2835 49.8068 42.4246 48.3555 45.1393C47.1944 47.311 49.9515 51.5527 50.7135 53.8444C49.9432 52.8971 45.6287 50.3784 44.8391 48.9431C43.8522 47.149 45.3643 41.3161 45.3947 39.757Z" fill="black" stroke="black" stroke-width="2"/>
<path d="M58.7075 32.5028C58.6165 33.9365 57.419 35.2136 56.0436 36.0368C54.6508 36.4826 52.7012 33.0656 52.2758 30.648C51.9355 28.7138 54.6581 24.2764 55.5228 22.5951C55.3899 24.2551 55.7724 28.9137 56.0988 30.5458C56.5068 32.586 58.7985 31.0691 58.7075 32.5028Z" fill="black" stroke="black" stroke-width="2"/>
<path d="M44.3557 35.0294C45.6122 34.716 46.2405 34.5592 46.2418 31.8895C45.2063 29.8788 40.0235 30.5044 37.0698 33.1098C35.8413 34.1934 34.1665 39.4844 33.5789 42.1225C34.5009 40.6467 36.6341 37.4629 37.7905 36.5338C39.2359 35.3724 43.0992 35.3429 44.3557 35.0294Z" fill="black" stroke="black" stroke-width="2"/>
</g>
<path d="M70.7559 29.9234C68.1076 27.8279 65.8436 30.8495 66.0066 28.0021C65.9292 23.6979 68.3066 25.8956 71.9363 27.311C74.84 28.4433 74.6261 32.7956 74.1562 34.8302C73.9055 33.893 72.8746 31.5997 70.7559 29.9234Z" fill="#1D1721" stroke="black" stroke-width="2"/>
<path d="M65.1974 20.821C64.4206 22.0429 64.0114 20.9592 62.2782 18.8279C62.7057 18.0474 63.5127 16.195 63.3203 15.0296C63.0798 13.5727 62.1481 6.18619 63.2733 9.16624C63.6421 10.143 65.9935 13.0917 67.0827 15.1567C68.1719 17.2217 65.9742 19.5991 65.1974 20.821Z" fill="#1D1721" stroke="black" stroke-width="2"/>
<path d="M46.7806 24.1318C48.1673 25.8369 51.6524 25.2845 53.2217 24.7952L49.7054 28.5991C48.2246 28.2296 45.0114 27.1522 44.0052 25.7987C42.9989 24.4453 42.5594 20.8763 42.4654 19.2609C43.326 20.1741 45.394 22.4267 46.7806 24.1318Z" fill="#1D1721" stroke="black" stroke-width="2"/>
<path d="M57.644 42.626C56.8257 40.4587 57.0855 35.4081 58.91 32.8621C59.4297 32.8722 60.7268 32.919 61.7574 33.0252C63.0456 33.1578 60.3116 38.214 60.3835 40.044C60.441 41.508 62.8549 43.857 64.0546 44.8485C62.1905 44.8301 58.2986 44.3598 57.644 42.626Z" fill="#1D1721" stroke="black" stroke-width="2"/>
<path d="M49.1741 36.2768C46.8869 35.7708 45.0722 31.1675 47.5669 27.2196C48.1853 26.0203 48.0866 23.3209 48.9361 20.8121C49.7856 18.3033 55.658 15.6515 57.6208 17.0734C59.5836 18.4954 61.4468 17.2143 66.2219 17.5495C70.3132 18.0469 70.8125 25.4793 69.5268 27.6721C68.2411 29.8648 69.3194 32.1259 67.5854 35.4738C65.8514 38.8217 58.2168 39.3747 57.327 37.9079C56.4371 36.4411 51.4614 36.7828 49.1741 36.2768Z" fill="#5F5666" stroke="black" stroke-width="2"/>
<path d="M51.6852 21.5435C52.2809 21.7972 55.136 21.0425 55.6081 19.273C54.7924 17.0018 52.4355 11.9818 49.5336 10.0702C46.6317 8.15866 42.5511 12.9145 40.8736 15.5313C42.1636 14.4854 45.2131 12.481 47.0912 12.8305C49.4388 13.2673 51.0894 21.2897 51.6852 21.5435Z" fill="#ACA5B1" stroke="black" stroke-width="2"/>
<path d="M68.4472 23.6897C67.8031 23.6234 66.8521 22.7443 66.1361 20.8479C67.2962 19.2749 69.5888 15.8918 69.4783 14.9431C69.3677 13.9944 65.8808 12.7933 64.1512 12.3114C65.0322 12.1852 67.2009 12.0267 68.8286 12.4026C70.4563 12.7786 72.2758 13.0614 72.5606 14.0889C72.1431 14.3497 69.8846 17.8231 72.1625 17.9535C74.4404 18.084 74.7224 20.9077 75.936 23.029C74.1704 21.632 72.4932 20.3049 71.6262 20.6322C70.5426 21.0414 69.0913 23.756 68.4472 23.6897Z" fill="#ACA5B1" stroke="black" stroke-width="2"/>
<path d="M66.5805 31.8628C65.0877 31.1883 63.125 32.5484 63.0946 34.1075C63.9129 36.2748 65.1707 37.9666 67.0726 39.7248C68.9745 41.4829 70.7198 43.9193 70.6774 45.1734C71.1372 43.6585 71.9136 40.2494 71.3408 38.7323C70.6249 36.8359 68.4465 32.7059 66.5805 31.8628Z" fill="#ACA5B1" stroke="black" stroke-width="2"/>
<path d="M51.2895 33.1254C51.3138 31.8781 53.7701 30.9507 54.5045 30.983C58.4714 31.652 55.7015 35.7931 54.2502 38.5077C53.0892 40.6794 55.8462 44.9211 56.6083 47.2128C55.8379 46.2656 51.5234 43.7468 50.7339 42.3116C49.747 40.5175 51.2591 34.6845 51.2895 33.1254Z" fill="#ACA5B1" stroke="black" stroke-width="2"/>
<path d="M64.6022 25.8712C64.5112 27.305 63.3137 28.582 61.9383 29.4053C60.5456 29.851 58.5959 26.4341 58.1706 24.0164C57.8303 22.0823 60.5528 17.6449 61.4176 15.9635C61.2846 17.6235 61.6671 22.2821 61.9935 23.9143C62.4015 25.9545 64.6933 24.4375 64.6022 25.8712Z" fill="#ACA5B1" stroke="black" stroke-width="2"/>
<path d="M50.2505 28.3979C51.507 28.0844 52.1352 27.9277 52.1366 25.2579C51.1011 23.2472 45.9183 23.8728 42.9645 26.4783C41.736 27.5619 40.0612 32.8529 39.4736 35.4909C40.3957 34.0152 42.5289 30.8313 43.6852 29.9022C45.1306 28.7408 48.9939 28.7113 50.2505 28.3979Z" fill="#ACA5B1" stroke="black" stroke-width="2"/>
</svg>
