<svg width="1500" height="625" viewBox="0 0 1500 625" fill="none" xmlns="http://www.w3.org/2000/svg">
<rect width="1500" height="625" fill="#78C1D1"/>
<path d="M545.98 195.971C520.18 195.971 331.548 196.685 333.008 190.979C334.469 185.274 379.254 184.561 388.989 181.233C398.725 177.904 396.048 147 428.176 147C460.304 147 463.712 170.773 467.606 174.338C471.501 177.904 465.694 169.692 492.189 160.788C514.825 153.181 543.546 171.01 547.683 179.331C551.821 187.651 572.753 182.183 585.653 186.225C598.553 190.266 571.78 195.971 545.98 195.971Z" fill="#6FB1C0"/>
<path d="M1145 207C1128.6 207 1002.5 208.667 959.501 207C956.001 207 971.501 201.5 985.001 201.5C998.501 201.5 997.001 191.5 1019 187C1041 182.5 1049 191 1049 191C1049 191 1058 179 1073.5 179C1083.93 179 1094 191 1094 191C1094 191 1101.96 185.5 1109 185.5C1130.5 185.5 1127 199 1162 198.5C1197 198 1203.5 207 1197.5 207H1145Z" fill="#6FB1C0"/>
<path d="M180.083 206.995H129.216C117.825 206.995 51.8153 208.157 0 207.982V182.519C2.05837 181.539 4.41081 180.636 7.1352 179.856C28.4509 173.75 36.2021 185.284 36.2021 185.284C36.2021 185.284 44.9222 169 59.9401 169C70.0431 169 79.8025 185.284 79.8025 185.284C79.8025 185.284 87.5185 177.82 94.336 177.82C115.167 177.82 111.776 196.139 145.687 195.461C179.599 194.782 185.897 206.995 180.083 206.995Z" fill="#6FB1C0"/>
<path d="M603.774 165.731C573.73 166.409 297.532 170.479 286.607 165.731C274.999 160.983 305.043 147.756 320.065 144.026C335.087 140.295 350.041 117.138 366.155 115.537C396.881 112.485 393.809 137.921 401.319 139.617C408.83 141.312 413.952 124.016 418.39 105.702C422.828 87.3883 446.044 55.5087 483.94 69.4136C521.836 83.3186 520.698 103.441 509.204 124.016C514.325 115.198 529.074 99.4619 555.294 101.632C581.514 103.803 568.609 147.756 568.609 147.756C568.609 147.756 573.73 133.173 608.895 133.173C644.06 133.173 633.476 150.13 644.401 150.13C655.326 150.13 696.636 153.182 687.76 159.626C678.883 166.07 633.817 165.052 603.774 165.731Z" fill="#9CCAD5"/>
<path d="M1377.63 133.891C1377.63 133.891 1407.26 122.864 1428.42 124.56C1442.53 125.691 1465.67 130.498 1477.53 150.857C1482.04 150.857 1490.51 151.677 1500 152.986V166C1387.15 165.607 1121.67 164.429 1116.03 164.429C1109.26 164.429 1071.65 165.495 1086.4 159.34C1106.72 150.857 1140.84 153.644 1149.05 143.222C1161.75 127.105 1196.46 124.56 1196.46 124.56C1196.46 124.56 1198.15 100.809 1226.93 108.443C1255.72 116.078 1234.55 67.726 1274.34 66.0294C1296.53 65.0836 1307.36 87.2363 1307.36 87.2363C1307.36 87.2363 1313.29 75.3605 1336.99 75.3605C1360.7 75.3605 1377.63 133.891 1377.63 133.891Z" fill="#9CCAD5"/>
<path d="M272.208 142.028C240.073 144.563 161.215 148.893 87.2195 147.837C82.0271 147.837 36.8596 143.718 0 142.417V110.161C5.38279 103.438 12.6374 96.4125 25.909 91.3292C57.6213 79.1826 74.5345 114.566 74.5345 114.566C74.5345 114.566 67.3567 71.9117 91.4478 62.2831C123.16 49.6084 132.674 72.8453 132.674 72.8453C132.674 72.8453 122.898 10 206.669 10C253.709 9.99998 272.208 91.3292 272.208 91.3292C272.208 91.3292 284.893 64.3955 319.248 68.0923C385.145 75.1833 350.432 124.072 376.33 125.128C402.228 126.185 407.514 128.297 389.015 134.106C370.516 139.915 312.377 138.859 272.208 142.028Z" fill="#CADBDE"/>
<path d="M1032.11 151.279C989.514 148.241 687.351 157.819 703.747 144.618C720.142 131.418 715.814 147.797 740.855 129.887C765.895 111.976 784.266 139.884 797.927 131.246C811.589 122.607 784.854 73.8149 830.835 58.5808C876.816 43.3467 881.511 66.7272 881.511 66.7272C881.511 66.7272 910.07 11.3089 983.439 17.3931C1056.81 23.4773 1074.99 127.432 1074.99 127.432C1074.99 127.432 1084.09 104.515 1108.69 105.101C1133.29 105.686 1142.22 130.129 1183.91 143.616C1209.97 152.043 1074.7 154.317 1032.11 151.279Z" fill="#CADBDE"/>
<g style="mix-blend-mode:hue" opacity="0.7">
<rect width="1500" height="625" fill="url(#paint0_linear_10_82)" fill-opacity="0.48"/>
</g>
<defs>
<linearGradient id="paint0_linear_10_82" x1="750" y1="625" x2="750" y2="2.08616e-05" gradientUnits="userSpaceOnUse">
<stop offset="0.116176" stop-color="#990FBB" stop-opacity="0.89"/>
<stop offset="0.506811" stop-color="white" stop-opacity="0"/>
<stop offset="0.928697" stop-color="#C700D8" stop-opacity="0.85"/>
</linearGradient>
</defs>
</svg>
