<svg width="110" height="72" viewBox="0 0 110 72" fill="none" xmlns="http://www.w3.org/2000/svg">
<path d="M13.5741 59.9103C12.118 60.3912 8.70847 61.6149 4.86511 63.013C1.79135 64.1311 2.42168 68.5518 5.68736 68.7349C14.2694 69.2163 23.0918 69.536 25.7577 69.0796C31.1088 68.1634 35.615 71.0729 41.4238 70.9986C45.0651 70.9521 69.0428 69.0841 88.0571 67.5533C91.3269 67.2901 91.9466 62.6854 88.8844 61.5088C84.2017 59.7097 80.1451 58.0468 79.2363 57.3754C76.9805 55.7087 17.5793 58.5875 13.5741 59.9103Z" fill="black"/>
<path d="M12.7184 58.3911L9.3207 11.9564C9.20278 10.3448 10.3634 8.92138 11.9657 8.71238L35.1167 5.69268C36.8677 5.46429 38.4457 6.76736 38.5525 8.52999L41.5497 57.9844C41.6559 59.7366 40.2635 61.216 38.508 61.216H15.7575C14.1608 61.216 12.8349 59.9835 12.7184 58.3911Z" fill="black"/>
<path d="M15.2625 55.423L12.3151 14.8961C12.1867 13.1307 13.5843 11.6278 15.3543 11.6278H15.6521C17.2281 11.6278 18.5441 12.8296 18.6868 14.3991L22.3711 54.9261C22.5333 56.7106 21.1282 58.2492 19.3363 58.2492H18.3017C16.7045 58.2492 15.3784 57.016 15.2625 55.423Z" fill="black"/>
<path d="M23.9546 10.8537L25.0167 10.7288C26.7418 10.5258 28.2873 11.8037 28.4122 13.5361L31.342 54.1874C31.4671 55.9239 30.0921 57.4015 28.3512 57.4015C26.8117 57.4015 25.5223 56.2358 25.3678 54.7041L21.2788 14.1861C21.1118 12.5312 22.3027 11.0481 23.9546 10.8537Z" fill="black"/>
<path d="M33.4807 54.4329L30.4881 12.5354C30.3814 11.0426 31.3904 9.69925 32.8538 9.38568C34.6393 9.00306 36.3501 10.2897 36.4779 12.1113L39.4183 54.0125C39.5333 55.6507 38.2996 57.0725 36.6615 57.1895C35.0219 57.3066 33.5979 56.0724 33.4807 54.4329Z" fill="black"/>
<path d="M55.8463 58.5805L59.4176 12.4803C59.5466 10.8151 60.9921 9.56403 62.6586 9.67522L79.6199 10.8069C81.2861 10.918 82.5524 12.3495 82.4596 14.0168L79.9467 59.1393C79.8563 60.7639 78.5053 62.0309 76.8782 62.017L58.8584 61.863C57.0931 61.8479 55.7099 60.3406 55.8463 58.5805Z" fill="black"/>
<path d="M64.1559 16.7115L64.0508 16.7067C62.7571 16.6479 61.7824 15.5079 61.9253 14.2207C62.0655 12.9579 63.2264 12.0641 64.4831 12.2515L64.5872 12.267C65.7174 12.4355 66.5386 13.4292 66.4912 14.5709C66.4399 15.808 65.3928 16.7678 64.1559 16.7115Z" fill="black"/>
<path d="M77.78 17.8081L77.6749 17.8033C76.3812 17.7444 75.4065 16.6045 75.5494 15.3173C75.6896 14.0545 76.8505 13.1607 78.1072 13.3481L78.2113 13.3636C79.3415 13.5321 80.1627 14.5258 80.1153 15.6675C80.064 16.9046 79.0169 17.8644 77.78 17.8081Z" fill="black"/>
<path d="M70.9679 17.2598L70.8628 17.255C69.5691 17.1961 68.5945 16.0562 68.7373 14.769C68.8775 13.5062 70.0385 12.6124 71.2952 12.7998L71.3992 12.8153C72.5294 12.9838 73.3506 13.9775 73.3033 15.1191C73.2519 16.3563 72.2049 17.3161 70.9679 17.2598Z" fill="black"/>
<path d="M63.0593 30.3356L62.9542 30.3308C61.6605 30.2719 60.6858 29.132 60.8287 27.8448C60.9689 26.582 62.1298 25.6882 63.3865 25.8756L63.4906 25.8911C64.6208 26.0596 65.442 27.0533 65.3946 28.1949C65.3433 29.4321 64.2962 30.3918 63.0593 30.3356Z" fill="black"/>
<path d="M76.6834 31.4322L76.5782 31.4274C75.2845 31.3685 74.3099 30.2286 74.4528 28.9414C74.5929 27.6786 75.7539 26.7848 77.0106 26.9722L77.1147 26.9877C78.2448 27.1562 79.066 28.1499 79.0187 29.2915C78.9673 30.5287 77.9203 31.4884 76.6834 31.4322Z" fill="black"/>
<path d="M69.8713 30.8839L69.7662 30.8791C68.4725 30.8202 67.4978 29.6802 67.6407 28.3931C67.7809 27.1303 68.9418 26.2365 70.1985 26.4239L70.3026 26.4394C71.4328 26.6079 72.254 27.6015 72.2066 28.7432C72.1553 29.9804 71.1082 30.9401 69.8713 30.8839Z" fill="black"/>
<path d="M63.6076 23.5235L63.5025 23.5187C62.2088 23.4599 61.2341 22.3199 61.377 21.0328C61.5172 19.7699 62.6781 18.8761 63.9348 19.0635L64.0389 19.079C65.1691 19.2475 65.9903 20.2412 65.9429 21.3829C65.8916 22.62 64.8445 23.5798 63.6076 23.5235Z" fill="black"/>
<path d="M77.2317 24.6201L77.1265 24.6154C75.8328 24.5565 74.8582 23.4165 75.0011 22.1294C75.1413 20.8666 76.3022 19.9728 77.5589 20.1601L77.663 20.1757C78.7931 20.3442 79.6143 21.3378 79.567 22.4795C79.5156 23.7166 78.4686 24.6764 77.2317 24.6201Z" fill="black"/>
<path d="M70.4196 24.0718L70.3145 24.0671C69.0208 24.0082 68.0461 22.8682 68.189 21.5811C68.3292 20.3183 69.4902 19.4245 70.7469 19.6118L70.8509 19.6273C71.9811 19.7959 72.8023 20.7895 72.7549 21.9312C72.7036 23.1683 71.6565 24.1281 70.4196 24.0718Z" fill="black"/>
<path d="M62.511 37.1476L62.4058 37.1428C61.1121 37.084 60.1375 35.944 60.2804 34.6568C60.4206 33.394 61.5815 32.5002 62.8382 32.6876L62.9423 32.7031C64.0724 32.8716 64.8936 33.8653 64.8463 35.007C64.7949 36.2441 63.7479 37.2039 62.511 37.1476Z" fill="black"/>
<path d="M76.1351 38.2442L76.03 38.2394C74.7362 38.1806 73.7616 37.0406 73.9045 35.7535C74.0447 34.4906 75.2056 33.5968 76.4623 33.7842L76.5664 33.7997C77.6965 33.9683 78.5178 34.9619 78.4704 36.1036C78.419 37.3407 77.372 38.3005 76.1351 38.2442Z" fill="black"/>
<path d="M69.323 37.6959L69.2179 37.6911C67.9242 37.6323 66.9495 36.4923 67.0924 35.2052C67.2326 33.9423 68.3936 33.0485 69.6502 33.2359L69.7543 33.2514C70.8845 33.4199 71.7057 34.4136 71.6583 35.5553C71.607 36.7924 70.5599 37.7522 69.323 37.6959Z" fill="black"/>
<path d="M62.2612 50.7344L62.1561 50.7296C60.8624 50.6707 59.8877 49.5308 60.0306 48.2436C60.1708 46.9808 61.3317 46.087 62.5884 46.2744L62.6925 46.2899C63.8227 46.4584 64.6439 47.4521 64.5965 48.5938C64.5452 49.8309 63.4981 50.7907 62.2612 50.7344Z" fill="black"/>
<path d="M75.8853 51.831L75.7802 51.8262C74.4865 51.7673 73.5118 50.6274 73.6547 49.3402C73.7949 48.0774 74.9558 47.1836 76.2125 47.371L76.3166 47.3865C77.4468 47.555 78.268 48.5487 78.2206 49.6904C78.1693 50.9275 77.1222 51.8873 75.8853 51.831Z" fill="black"/>
<path d="M69.0732 51.2827L68.9681 51.2779C67.6744 51.219 66.6997 50.079 66.8426 48.7919C66.9828 47.5291 68.1438 46.6353 69.4005 46.8227L69.5045 46.8382C70.6347 47.0067 71.4559 48.0003 71.4085 49.142C71.3572 50.3792 70.3101 51.3389 69.0732 51.2827Z" fill="black"/>
<path d="M61.7502 58.3932L61.6451 58.3885C60.3514 58.3296 59.3767 57.1896 59.5196 55.9025C59.6598 54.6397 60.8207 53.7459 62.0774 53.9332L62.1815 53.9488C63.3117 54.1173 64.1329 55.1109 64.0855 56.2526C64.0342 57.4897 62.9871 58.4495 61.7502 58.3932Z" fill="black"/>
<path d="M75.3743 59.4898L75.2692 59.4851C73.9755 59.4262 73.0008 58.2862 73.1437 56.9991C73.2839 55.7363 74.4448 54.8425 75.7015 55.0298L75.8056 55.0454C76.9358 55.2139 77.757 56.2075 77.7096 57.3492C77.6583 58.5863 76.6112 59.5461 75.3743 59.4898Z" fill="black"/>
<path d="M68.5622 58.9416L68.4571 58.9368C67.1634 58.8779 66.1888 57.7379 66.3316 56.4508C66.4718 55.188 67.6328 54.2942 68.8895 54.4815L68.9935 54.4971C70.1237 54.6656 70.9449 55.6592 70.8975 56.8009C70.8462 58.0381 69.7992 58.9978 68.5622 58.9416Z" fill="black"/>
<path d="M61.9627 43.9597L61.8575 43.9549C60.5638 43.896 59.5892 42.756 59.7321 41.4689C59.8723 40.2061 61.0332 39.3123 62.2899 39.4996L62.394 39.5152C63.5241 39.6837 64.3453 40.6773 64.298 41.819C64.2466 43.0562 63.1996 44.0159 61.9627 43.9597Z" fill="black"/>
<path d="M75.5867 45.0563L75.4816 45.0515C74.1879 44.9926 73.2133 43.8527 73.3561 42.5655C73.4963 41.3027 74.6573 40.4089 75.914 40.5963L76.018 40.6118C77.1482 40.7803 77.9694 41.774 77.9221 42.9157C77.8707 44.1528 76.8237 45.1126 75.5867 45.0563Z" fill="black"/>
<path d="M68.7747 44.508L68.6696 44.5032C67.3759 44.4443 66.4012 43.3043 66.5441 42.0172C66.6843 40.7544 67.8452 39.8606 69.1019 40.048L69.206 40.0635C70.3362 40.232 71.1574 41.2256 71.11 42.3673C71.0587 43.6045 70.0116 44.5642 68.7747 44.508Z" fill="black"/>
<path d="M58.1983 64.1828H36.0603C34.3101 64.1828 32.9277 62.712 33.0259 60.9646L34.8027 29.3382C34.8934 27.7242 36.2286 26.4618 37.8451 26.4618H58.1946C59.8775 26.4618 61.2418 27.8261 61.2418 29.5091V61.1356C61.2418 62.8185 59.8813 64.1828 58.1983 64.1828Z" fill="black"/>
<path d="M56.134 29.3712L40.0706 29.0623C38.4114 29.0304 37.0317 30.332 36.9671 31.9903L35.9353 58.4739C35.868 60.2021 37.2507 61.6398 38.9802 61.6398H56.0754C57.7584 61.6398 59.1227 60.2755 59.1227 58.5926V32.4179C59.1227 30.7578 57.7938 29.4031 56.134 29.3712Z" fill="black"/>
<path d="M13.5741 59.9103C12.118 60.3912 8.70847 61.6149 4.86511 63.013C1.79135 64.1311 2.42168 68.5518 5.68736 68.7349C14.2694 69.2163 23.0918 69.536 25.7577 69.0796C31.1088 68.1634 35.615 71.0729 41.4238 70.9986C45.0651 70.9521 69.0428 69.0841 88.0571 67.5533C91.3269 67.2901 91.9466 62.6854 88.8844 61.5088C84.2017 59.7097 80.1451 58.0468 79.2363 57.3754C76.9805 55.7087 17.5793 58.5875 13.5741 59.9103Z" stroke="black"/>
<path d="M12.7184 58.3911L9.3207 11.9564C9.20278 10.3448 10.3634 8.92138 11.9657 8.71238L35.1167 5.69268C36.8677 5.46429 38.4457 6.76736 38.5525 8.52999L41.5497 57.9844C41.6559 59.7366 40.2635 61.216 38.508 61.216H15.7575C14.1608 61.216 12.8349 59.9835 12.7184 58.3911Z" stroke="black"/>
<path d="M15.2625 55.423L12.3151 14.8961C12.1867 13.1307 13.5843 11.6278 15.3543 11.6278H15.6521C17.2281 11.6278 18.5441 12.8296 18.6868 14.3991L22.3711 54.9261C22.5333 56.7106 21.1282 58.2492 19.3363 58.2492H18.3017C16.7045 58.2492 15.3784 57.016 15.2625 55.423Z" stroke="black"/>
<path d="M23.9546 10.8537L25.0167 10.7288C26.7418 10.5258 28.2873 11.8037 28.4122 13.5361L31.342 54.1874C31.4671 55.9239 30.0921 57.4015 28.3512 57.4015C26.8117 57.4015 25.5223 56.2358 25.3678 54.7041L21.2788 14.1861C21.1118 12.5312 22.3027 11.0481 23.9546 10.8537Z" stroke="black"/>
<path d="M33.4807 54.4329L30.4881 12.5354C30.3814 11.0426 31.3904 9.69925 32.8538 9.38568C34.6393 9.00306 36.3501 10.2897 36.4779 12.1113L39.4183 54.0125C39.5333 55.6507 38.2996 57.0725 36.6615 57.1895C35.0219 57.3066 33.5979 56.0724 33.4807 54.4329Z" stroke="black"/>
<path d="M55.8463 58.5805L59.4176 12.4803C59.5466 10.8151 60.9921 9.56403 62.6586 9.67522L79.6199 10.8069C81.2861 10.918 82.5524 12.3495 82.4596 14.0168L79.9467 59.1393C79.8563 60.7639 78.5053 62.0309 76.8782 62.017L58.8584 61.863C57.0931 61.8479 55.7099 60.3406 55.8463 58.5805Z" stroke="black"/>
<path d="M64.1559 16.7115L64.0508 16.7067C62.7571 16.6479 61.7824 15.5079 61.9253 14.2207C62.0655 12.9579 63.2264 12.0641 64.4831 12.2515L64.5872 12.267C65.7174 12.4355 66.5386 13.4292 66.4912 14.5709C66.4399 15.808 65.3928 16.7678 64.1559 16.7115Z" stroke="black"/>
<path d="M77.78 17.8081L77.6749 17.8033C76.3812 17.7444 75.4065 16.6045 75.5494 15.3173C75.6896 14.0545 76.8505 13.1607 78.1072 13.3481L78.2113 13.3636C79.3415 13.5321 80.1627 14.5258 80.1153 15.6675C80.064 16.9046 79.0169 17.8644 77.78 17.8081Z" stroke="black"/>
<path d="M70.9679 17.2598L70.8628 17.255C69.5691 17.1961 68.5945 16.0562 68.7373 14.769C68.8775 13.5062 70.0385 12.6124 71.2952 12.7998L71.3992 12.8153C72.5294 12.9838 73.3506 13.9775 73.3033 15.1191C73.2519 16.3563 72.2049 17.3161 70.9679 17.2598Z" stroke="black"/>
<path d="M63.0593 30.3356L62.9542 30.3308C61.6605 30.2719 60.6858 29.132 60.8287 27.8448C60.9689 26.582 62.1298 25.6882 63.3865 25.8756L63.4906 25.8911C64.6208 26.0596 65.442 27.0533 65.3946 28.1949C65.3433 29.4321 64.2962 30.3918 63.0593 30.3356Z" stroke="black"/>
<path d="M76.6834 31.4322L76.5782 31.4274C75.2845 31.3685 74.3099 30.2286 74.4528 28.9414C74.5929 27.6786 75.7539 26.7848 77.0106 26.9722L77.1147 26.9877C78.2448 27.1562 79.066 28.1499 79.0187 29.2915C78.9673 30.5287 77.9203 31.4884 76.6834 31.4322Z" stroke="black"/>
<path d="M69.8713 30.8839L69.7662 30.8791C68.4725 30.8202 67.4978 29.6802 67.6407 28.3931C67.7809 27.1303 68.9418 26.2365 70.1985 26.4239L70.3026 26.4394C71.4328 26.6079 72.254 27.6015 72.2066 28.7432C72.1553 29.9804 71.1082 30.9401 69.8713 30.8839Z" stroke="black"/>
<path d="M63.6076 23.5235L63.5025 23.5187C62.2088 23.4599 61.2341 22.3199 61.377 21.0328C61.5172 19.7699 62.6781 18.8761 63.9348 19.0635L64.0389 19.079C65.1691 19.2475 65.9903 20.2412 65.9429 21.3829C65.8916 22.62 64.8445 23.5798 63.6076 23.5235Z" stroke="black"/>
<path d="M77.2317 24.6201L77.1265 24.6154C75.8328 24.5565 74.8582 23.4165 75.0011 22.1294C75.1413 20.8666 76.3022 19.9728 77.5589 20.1601L77.663 20.1757C78.7931 20.3442 79.6143 21.3378 79.567 22.4795C79.5156 23.7166 78.4686 24.6764 77.2317 24.6201Z" stroke="black"/>
<path d="M70.4196 24.0718L70.3145 24.0671C69.0208 24.0082 68.0461 22.8682 68.189 21.5811C68.3292 20.3183 69.4902 19.4245 70.7469 19.6118L70.8509 19.6273C71.9811 19.7959 72.8023 20.7895 72.7549 21.9312C72.7036 23.1683 71.6565 24.1281 70.4196 24.0718Z" stroke="black"/>
<path d="M62.511 37.1476L62.4058 37.1428C61.1121 37.084 60.1375 35.944 60.2804 34.6568C60.4206 33.394 61.5815 32.5002 62.8382 32.6876L62.9423 32.7031C64.0724 32.8716 64.8936 33.8653 64.8463 35.007C64.7949 36.2441 63.7479 37.2039 62.511 37.1476Z" stroke="black"/>
<path d="M76.1351 38.2442L76.03 38.2394C74.7362 38.1806 73.7616 37.0406 73.9045 35.7535C74.0447 34.4906 75.2056 33.5968 76.4623 33.7842L76.5664 33.7997C77.6965 33.9683 78.5178 34.9619 78.4704 36.1036C78.419 37.3407 77.372 38.3005 76.1351 38.2442Z" stroke="black"/>
<path d="M69.323 37.6959L69.2179 37.6911C67.9242 37.6323 66.9495 36.4923 67.0924 35.2052C67.2326 33.9423 68.3936 33.0485 69.6502 33.2359L69.7543 33.2514C70.8845 33.4199 71.7057 34.4136 71.6583 35.5553C71.607 36.7924 70.5599 37.7522 69.323 37.6959Z" stroke="black"/>
<path d="M62.2612 50.7344L62.1561 50.7296C60.8624 50.6707 59.8877 49.5308 60.0306 48.2436C60.1708 46.9808 61.3317 46.087 62.5884 46.2744L62.6925 46.2899C63.8227 46.4584 64.6439 47.4521 64.5965 48.5938C64.5452 49.8309 63.4981 50.7907 62.2612 50.7344Z" stroke="black"/>
<path d="M75.8853 51.831L75.7802 51.8262C74.4865 51.7673 73.5118 50.6274 73.6547 49.3402C73.7949 48.0774 74.9558 47.1836 76.2125 47.371L76.3166 47.3865C77.4468 47.555 78.268 48.5487 78.2206 49.6904C78.1693 50.9275 77.1222 51.8873 75.8853 51.831Z" stroke="black"/>
<path d="M69.0732 51.2827L68.9681 51.2779C67.6744 51.219 66.6997 50.079 66.8426 48.7919C66.9828 47.5291 68.1438 46.6353 69.4005 46.8227L69.5045 46.8382C70.6347 47.0067 71.4559 48.0003 71.4085 49.142C71.3572 50.3792 70.3101 51.3389 69.0732 51.2827Z" stroke="black"/>
<path d="M61.7502 58.3932L61.6451 58.3885C60.3514 58.3296 59.3767 57.1896 59.5196 55.9025C59.6598 54.6397 60.8207 53.7459 62.0774 53.9332L62.1815 53.9488C63.3117 54.1173 64.1329 55.1109 64.0855 56.2526C64.0342 57.4897 62.9871 58.4495 61.7502 58.3932Z" stroke="black"/>
<path d="M75.3743 59.4898L75.2692 59.4851C73.9755 59.4262 73.0008 58.2862 73.1437 56.9991C73.2839 55.7363 74.4448 54.8425 75.7015 55.0298L75.8056 55.0454C76.9358 55.2139 77.757 56.2075 77.7096 57.3492C77.6583 58.5863 76.6112 59.5461 75.3743 59.4898Z" stroke="black"/>
<path d="M68.5622 58.9416L68.4571 58.9368C67.1634 58.8779 66.1888 57.7379 66.3316 56.4508C66.4718 55.188 67.6328 54.2942 68.8895 54.4815L68.9935 54.4971C70.1237 54.6656 70.9449 55.6592 70.8975 56.8009C70.8462 58.0381 69.7992 58.9978 68.5622 58.9416Z" stroke="black"/>
<path d="M61.9627 43.9597L61.8575 43.9549C60.5638 43.896 59.5892 42.756 59.7321 41.4689C59.8723 40.2061 61.0332 39.3123 62.2899 39.4996L62.394 39.5152C63.5241 39.6837 64.3453 40.6773 64.298 41.819C64.2466 43.0562 63.1996 44.0159 61.9627 43.9597Z" stroke="black"/>
<path d="M75.5867 45.0563L75.4816 45.0515C74.1879 44.9926 73.2133 43.8527 73.3561 42.5655C73.4963 41.3027 74.6573 40.4089 75.914 40.5963L76.018 40.6118C77.1482 40.7803 77.9694 41.774 77.9221 42.9157C77.8707 44.1528 76.8237 45.1126 75.5867 45.0563Z" stroke="black"/>
<path d="M68.7747 44.508L68.6696 44.5032C67.3759 44.4443 66.4012 43.3043 66.5441 42.0172C66.6843 40.7544 67.8452 39.8606 69.1019 40.048L69.206 40.0635C70.3362 40.232 71.1574 41.2256 71.11 42.3673C71.0587 43.6045 70.0116 44.5642 68.7747 44.508Z" stroke="black"/>
<path d="M58.1983 64.1828H36.0603C34.3101 64.1828 32.9277 62.712 33.0259 60.9646L34.8027 29.3382C34.8934 27.7242 36.2286 26.4618 37.8451 26.4618H58.1946C59.8775 26.4618 61.2418 27.8261 61.2418 29.5091V61.1356C61.2418 62.8185 59.8813 64.1828 58.1983 64.1828Z" stroke="black"/>
<path d="M56.134 29.3712L40.0706 29.0623C38.4114 29.0304 37.0317 30.332 36.9671 31.9903L35.9353 58.4739C35.868 60.2021 37.2507 61.6398 38.9802 61.6398H56.0754C57.7584 61.6398 59.1227 60.2755 59.1227 58.5926V32.4179C59.1227 30.7578 57.7938 29.4031 56.134 29.3712Z" stroke="black"/>
<path d="M21.9844 54.7927C20.5508 55.2662 17.1942 56.4709 13.4104 57.8473C10.3843 58.9481 11.0049 63.3002 14.2199 63.4805C22.6689 63.9545 31.3545 64.2691 33.9791 63.8198C39.2472 62.9179 43.6835 65.7822 49.4023 65.7091C52.9871 65.6633 76.5929 63.8242 95.3124 62.3172C98.5316 62.0581 99.1417 57.5248 96.1269 56.3665C91.5168 54.5952 87.5231 52.9581 86.6285 52.2971C84.4076 50.6563 25.9275 53.4904 21.9844 54.7927Z" fill="#17351C" stroke="black" stroke-width="2"/>
<path d="M21.1419 53.2971L17.7969 7.58243C17.6808 5.99582 18.8234 4.59446 20.4009 4.3887L43.1929 1.41583C44.9168 1.19098 46.4703 2.47384 46.5754 4.20914L49.5262 52.8967C49.6307 54.6218 48.2599 56.0782 46.5317 56.0782H24.1339C22.562 56.0782 21.2566 54.8648 21.1419 53.2971Z" fill="#262D34" stroke="black" stroke-width="2"/>
<path d="M23.6466 50.375L20.7449 10.4765C20.6185 8.73851 21.9944 7.25888 23.737 7.25888H24.0301C25.5817 7.25888 26.8773 8.44203 27.0178 9.98727L30.6449 49.8858C30.8047 51.6426 29.4213 53.1574 27.6573 53.1574H26.6387C25.0663 53.1574 23.7607 51.9433 23.6466 50.375Z" fill="#AD8A30" stroke="black"/>
<path d="M32.2039 6.49685L33.2496 6.37383C34.9479 6.17403 36.4694 7.43204 36.5923 9.13763L39.4767 49.1586C39.5999 50.8681 38.2463 52.3229 36.5323 52.3229C35.0167 52.3229 33.7473 51.1752 33.5952 49.6672L29.5696 9.77753C29.4052 8.14828 30.5776 6.68818 32.2039 6.49685Z" fill="#AD8A30" stroke="black"/>
<path d="M41.5823 49.4002L38.6361 8.15242C38.5311 6.6828 39.5244 5.36028 40.9651 5.05157C42.7229 4.67489 44.4072 5.94155 44.533 7.7349L47.4279 48.9864C47.541 50.5992 46.3264 51.9989 44.7137 52.1141C43.0996 52.2294 41.6976 51.0144 41.5823 49.4002Z" fill="#AD8A30" stroke="black"/>
<path d="M63.6011 53.4835L67.1171 8.09824C67.2441 6.45881 68.6671 5.22714 70.3078 5.3366L87.006 6.45069C88.6464 6.56013 89.8931 7.96939 89.8017 9.61084L87.3278 54.0337C87.2388 55.6331 85.9087 56.8804 84.3068 56.8667L66.5665 56.7151C64.8286 56.7003 63.4669 55.2163 63.6011 53.4835Z" fill="#262D34" stroke="black" stroke-width="2"/>
<path d="M71.7818 12.2638L71.6783 12.2591C70.4047 12.2011 69.4451 11.0788 69.5858 9.81165C69.7238 8.56841 70.8668 7.68847 72.104 7.87294L72.2064 7.88822C73.3191 8.05411 74.1276 9.03236 74.0809 10.1563C74.0304 11.3743 72.9996 12.3192 71.7818 12.2638Z" fill="#AD8A30" stroke="black"/>
<path d="M85.1947 13.3434L85.0912 13.3387C83.8175 13.2807 82.858 12.1584 82.9987 10.8913C83.1367 9.64803 84.2796 8.76809 85.5168 8.95256L85.6193 8.96784C86.7319 9.13374 87.5404 10.112 87.4938 11.236C87.4432 12.4539 86.4124 13.3988 85.1947 13.3434Z" fill="#AD8A30" stroke="black"/>
<path d="M78.4883 12.8036L78.3848 12.7989C77.1111 12.7409 76.1516 11.6186 76.2922 10.3514C76.4303 9.1082 77.5732 8.22827 78.8104 8.41273L78.9129 8.42801C80.0255 8.59391 80.834 9.57216 80.7874 10.6961C80.7368 11.9141 79.706 12.859 78.4883 12.8036Z" fill="#AD8A30" stroke="black"/>
<path d="M70.7022 25.6766L70.5987 25.6719C69.3251 25.614 68.3655 24.4917 68.5062 23.2245C68.6442 21.9813 69.7872 21.1013 71.0244 21.2858L71.1268 21.3011C72.2395 21.467 73.048 22.4452 73.0013 23.5692C72.9508 24.7871 71.92 25.732 70.7022 25.6766Z" fill="#AD8A30" stroke="black"/>
<path d="M84.115 26.7562L84.0116 26.7515C82.7379 26.6936 81.7784 25.5713 81.919 24.3041C82.0571 23.0609 83.2 22.1809 84.4372 22.3654L84.5397 22.3807C85.6523 22.5466 86.4608 23.5248 86.4141 24.6488C86.3636 25.8668 85.3328 26.8117 84.115 26.7562Z" fill="#AD8A30" stroke="black"/>
<path d="M77.4086 26.2164L77.3051 26.2117C76.0315 26.1538 75.0719 25.0315 75.2126 23.7643C75.3506 22.521 76.4936 21.6411 77.7308 21.8256L77.8332 21.8409C78.9459 22.0068 79.7544 22.985 79.7077 24.109C79.6572 25.3269 78.6264 26.2718 77.4086 26.2164Z" fill="#AD8A30" stroke="black"/>
<path d="M71.242 18.9702L71.1385 18.9655C69.8649 18.9076 68.9053 17.7852 69.046 16.5181C69.184 15.2748 70.327 14.3949 71.5642 14.5794L71.6666 14.5946C72.7793 14.7605 73.5878 15.7388 73.5411 16.8628C73.4906 18.0807 72.4598 19.0256 71.242 18.9702Z" fill="#AD8A30" stroke="black"/>
<path d="M84.6549 20.0498L84.5514 20.0451C83.2777 19.9872 82.3182 18.8649 82.4588 17.5977C82.5969 16.3544 83.7398 15.4745 84.977 15.659L85.0795 15.6743C86.1921 15.8402 87.0006 16.8184 86.954 17.9424C86.9034 19.1603 85.8726 20.1052 84.6549 20.0498Z" fill="#AD8A30" stroke="black"/>
<path d="M77.9484 19.51L77.845 19.5053C76.5713 19.4474 75.6118 18.3251 75.7524 17.0579C75.8905 15.8147 77.0334 14.9347 78.2706 15.1192L78.3731 15.1345C79.4857 15.3004 80.2942 16.2786 80.2475 17.4026C80.197 18.6205 79.1662 19.5654 77.9484 19.51Z" fill="#AD8A30" stroke="black"/>
<path d="M70.1624 32.383L70.0589 32.3783C68.7853 32.3204 67.8257 31.1981 67.9664 29.9309C68.1044 28.6877 69.2474 27.8077 70.4846 27.9922L70.587 28.0075C71.6997 28.1734 72.5081 29.1516 72.4615 30.2756C72.411 31.4936 71.3801 32.4385 70.1624 32.383Z" fill="#AD8A30" stroke="black"/>
<path d="M83.5753 33.4626L83.4718 33.4579C82.1981 33.4 81.2386 32.2777 81.3793 31.0105C81.5173 29.7673 82.6602 28.8873 83.8974 29.0718L83.9999 29.0871C85.1125 29.253 85.921 30.2312 85.8744 31.3552C85.8238 32.5731 84.793 33.518 83.5753 33.4626Z" fill="#AD8A30" stroke="black"/>
<path d="M76.8688 32.9228L76.7654 32.9181C75.4917 32.8602 74.5322 31.7379 74.6728 30.4707C74.8108 29.2274 75.9538 28.3475 77.191 28.532L77.2935 28.5472C78.4061 28.7131 79.2146 29.6914 79.1679 30.8154C79.1174 32.0333 78.0866 32.9782 76.8688 32.9228Z" fill="#AD8A30" stroke="black"/>
<path d="M69.9165 45.7591L69.813 45.7544C68.5394 45.6965 67.5798 44.5742 67.7205 43.307C67.8585 42.0637 69.0015 41.1838 70.2387 41.3683L70.3411 41.3835C71.4538 41.5494 72.2623 42.5277 72.2156 43.6517C72.1651 44.8696 71.1343 45.8145 69.9165 45.7591Z" fill="#AD8A30" stroke="black"/>
<path d="M83.3294 46.8387L83.2259 46.834C81.9522 46.776 80.9927 45.6537 81.1333 44.3866C81.2714 43.1433 82.4143 42.2634 83.6515 42.4479L83.754 42.4631C84.8666 42.629 85.6751 43.6073 85.6285 44.7313C85.5779 45.9492 84.5471 46.8941 83.3294 46.8387Z" fill="#AD8A30" stroke="black"/>
<path d="M76.6229 46.2989L76.5194 46.2942C75.2458 46.2363 74.2862 45.114 74.4269 43.8468C74.5649 42.6036 75.7079 41.7236 76.9451 41.9081L77.0475 41.9234C78.1602 42.0893 78.9687 43.0675 78.922 44.1915C78.8715 45.4094 77.8407 46.3543 76.6229 46.2989Z" fill="#AD8A30" stroke="black"/>
<path d="M69.4135 53.2992L69.31 53.2945C68.0363 53.2366 67.0768 52.1143 67.2175 50.8471C67.3555 49.6039 68.4984 48.7239 69.7356 48.9084L69.8381 48.9237C70.9507 49.0896 71.7592 50.0678 71.7126 51.1918C71.662 52.4098 70.6312 53.3547 69.4135 53.2992Z" fill="#AD8A30" stroke="black"/>
<path d="M82.8263 54.3788L82.7228 54.3741C81.4491 54.3162 80.4896 53.1939 80.6303 51.9267C80.7683 50.6835 81.9112 49.8035 83.1484 49.988L83.2509 50.0033C84.3635 50.1692 85.172 51.1474 85.1254 52.2714C85.0748 53.4893 84.044 54.4342 82.8263 54.3788Z" fill="#AD8A30" stroke="black"/>
<path d="M76.1199 53.839L76.0164 53.8343C74.7427 53.7764 73.7832 52.6541 73.9239 51.3869C74.0619 50.1436 75.2048 49.2637 76.442 49.4482L76.5445 49.4634C77.6571 49.6293 78.4656 50.6076 78.419 51.7316C78.3684 52.9495 77.3376 53.8944 76.1199 53.839Z" fill="#AD8A30" stroke="black"/>
<path d="M69.6226 39.0894L69.5191 39.0847C68.2455 39.0268 67.2859 37.9045 67.4266 36.6373C67.5646 35.3941 68.7076 34.5141 69.9448 34.6986L70.0472 34.7139C71.1599 34.8798 71.9683 35.858 71.9217 36.982C71.8712 38.1999 70.8403 39.1448 69.6226 39.0894Z" fill="#AD8A30" stroke="black"/>
<path d="M83.0354 40.1691L82.9319 40.1644C81.6583 40.1064 80.6987 38.9841 80.8394 37.7169C80.9774 36.4737 82.1204 35.5937 83.3576 35.7782L83.46 35.7935C84.5727 35.9594 85.3812 36.9376 85.3345 38.0616C85.284 39.2796 84.2532 40.2245 83.0354 40.1691Z" fill="#AD8A30" stroke="black"/>
<path d="M76.329 39.6293L76.2256 39.6246C74.9519 39.5666 73.9924 38.4443 74.133 37.1771C74.271 35.9339 75.414 35.0539 76.6512 35.2384L76.7537 35.2537C77.8663 35.4196 78.6748 36.3978 78.6281 37.5218C78.5776 38.7398 77.5468 39.6847 76.329 39.6293Z" fill="#AD8A30" stroke="black"/>
<path d="M65.9167 58.999H44.1219C42.3989 58.999 41.0379 57.551 41.1346 55.8307L42.8838 24.6947C42.973 23.1057 44.2876 21.8629 45.8791 21.8629H65.9129C67.5698 21.8629 68.9129 23.2061 68.9129 24.8629V55.999C68.9129 57.6559 67.5735 58.999 65.9167 58.999Z" fill="#262D34" stroke="black" stroke-width="2"/>
<path d="M63.8843 24.7272L48.0701 24.423C46.4366 24.3916 45.0783 25.6731 45.0147 27.3057L43.9988 53.3786C43.9325 55.08 45.2939 56.4954 46.9966 56.4954H63.8266C65.4835 56.4954 66.8266 55.1523 66.8266 53.4954V27.7266C66.8266 26.0922 65.5184 24.7586 63.8843 24.7272Z" fill="#AD8A30" stroke="black"/>
</svg>
