<svg width="2091" height="754" viewBox="0 0 2091 754" fill="none" xmlns="http://www.w3.org/2000/svg">
<path d="M70.2392 516.728C58.2062 550.245 67.3362 753.5 67.3362 753.5H1.07434V423.534V354.865C1.07434 354.865 2.22035 242.097 1.07434 195.5C5.08536 182.42 30 130.056 30 126.786C30 124.17 47.6297 67.3523 51.2587 54C52.7867 57.27 53.0923 79.2082 51.2587 94.904C48.9667 114.524 31.208 159.485 33.5 157.033C35.792 154.581 55.3411 143.953 64.5092 130.873C73.6772 117.794 75.9692 70.3793 75.9692 94.904V94.905C75.9692 119.429 75.9692 139.866 70.2392 157.033C64.5092 174.2 35.3427 182.655 30 190C15.102 210.482 14.085 389.857 27.264 382.5C40.4431 375.143 81.1263 354.865 81.1263 347.508C81.1263 340.15 67.9472 337.698 64.5092 327.07C61.0712 316.443 70.2392 291.101 70.2392 257.584C70.2392 224.067 67.9472 198.725 70.2392 203.63C72.5312 208.535 73.6772 218.345 75.9692 228.154C78.2612 237.964 77.1152 265.759 75.9692 291.101C74.8232 316.443 100.608 321.348 104.619 304.181C108.63 287.014 102.327 251.862 100.608 240.417C98.8893 228.972 108.63 202.812 113.214 185.645C117.798 168.478 120.09 143.953 117.225 126.786C114.36 109.619 116.223 85.0941 120.807 89.999C125.391 94.904 125.247 117.794 127.539 139.866C129.831 161.938 107.484 231.424 113.214 218.345C118.944 205.265 134.989 198.725 147.595 185.645C160.201 172.565 168.796 164.39 180.829 154.581C192.862 144.771 181.975 110.436 189.997 117.794C198.019 125.151 192.862 144.771 187.705 157.033C182.548 169.295 151.033 185.645 168.796 191.367C186.559 197.09 191.143 198.725 206.614 198.725C222.085 198.725 245.005 179.923 238.129 185.645C231.253 191.368 203.176 210.17 197.446 210.17C191.716 210.17 149.887 198.725 127.539 236.329C105.192 273.934 119.517 272.299 113.214 321.348C106.911 370.397 66.2282 390.835 55.3411 416.994C44.4541 443.154 42.7351 452.964 55.3411 452.964C67.9472 452.964 109.203 381.025 117.225 376.12C125.247 371.215 136.135 380.207 147.595 376.12C159.055 372.032 164.785 362.222 168.796 354.865C172.807 347.508 165.931 332.793 164.785 316.443C163.639 300.093 153.898 272.299 157.336 278.839C160.774 285.379 170.515 295.188 172.807 321.348C175.099 347.508 172.807 358.953 176.245 358.953C179.683 358.953 180.829 346.69 181.975 332.793C183.121 318.896 194.008 287.831 197.446 284.561C200.884 281.291 210.052 264.124 215.782 251.862C221.512 239.599 218.074 210.17 221.512 210.17C224.95 210.17 213.49 258.402 226.669 240.417C237.212 226.029 236.41 214.257 234.691 210.17C236.792 214.802 240.421 226.52 238.129 236.329C233.911 242.347 211.994 275.831 202.093 289.821C210.553 283.068 227.906 276.162 240.994 272.299C254.288 268.375 275.947 270.664 285.115 272.299C268.307 274.751 230.451 282.763 213.49 295.189C192.289 310.721 191.143 362.222 189.997 367.127C188.851 372.032 165.358 385.93 143.584 392.47C121.809 399.009 105.514 434.82 100 441.5C96.9758 445.164 81.1263 452.964 96.0243 452.964C110.922 452.964 161.347 426.804 172.807 423.534C181.975 420.918 201.457 418.084 210.052 416.994C228.197 413.724 277.97 408.002 281.638 421.082C281.638 421.082 249.589 426.259 234.691 423.534C246.61 428.112 262.577 463.046 269.071 479.941C265.442 475.036 256.351 462.773 249.016 452.964C239.848 440.701 213.49 434.161 197.446 438.249C184.611 441.519 153.898 457.596 140.146 465.226C126.203 469.041 79.8657 489.914 70.2392 516.728Z" fill="black"/>
<path d="M67.3362 753.5C67.3362 753.5 58.2062 550.245 70.2392 516.728C79.8657 489.914 126.203 469.041 140.146 465.226C153.898 457.596 184.611 441.519 197.446 438.249C213.49 434.161 239.848 440.701 249.016 452.964C256.351 462.773 265.442 475.036 269.071 479.941C262.577 463.046 246.61 428.112 234.691 423.534C249.589 426.259 281.638 421.082 281.638 421.082C277.97 408.002 228.197 413.724 210.052 416.994C201.457 418.084 181.975 420.918 172.807 423.534C161.347 426.804 110.922 452.964 96.0243 452.964C81.1263 452.964 96.9758 445.164 100 441.5C105.514 434.82 121.809 399.009 143.584 392.47C165.358 385.93 188.851 372.032 189.997 367.127C191.143 362.222 192.289 310.721 213.49 295.189C230.451 282.763 268.307 274.751 285.115 272.299C275.947 270.664 254.288 268.375 240.994 272.299C224.377 277.204 200.884 287.014 197.446 295.189C194.008 303.363 232.399 244.504 238.129 236.329C240.421 226.52 236.792 214.802 234.691 210.17C236.41 214.257 237.212 226.029 226.669 240.417C213.49 258.402 224.95 210.17 221.512 210.17C218.074 210.17 221.512 239.599 215.782 251.862C210.052 264.124 200.884 281.291 197.446 284.561C194.008 287.831 183.121 318.896 181.975 332.793C180.829 346.69 179.683 358.953 176.245 358.953C172.807 358.953 175.099 347.508 172.807 321.348C170.515 295.188 160.774 285.379 157.336 278.839C153.898 272.299 163.639 300.093 164.785 316.443C165.931 332.793 172.807 347.508 168.796 354.865C164.785 362.222 159.055 372.032 147.595 376.12C136.135 380.207 125.247 371.215 117.225 376.12C109.203 381.025 67.9472 452.964 55.3411 452.964C42.7351 452.964 44.4541 443.154 55.3411 416.994C66.2282 390.835 106.911 370.397 113.214 321.348C119.517 272.299 105.192 273.934 127.539 236.329C149.887 198.725 191.716 210.17 197.446 210.17C203.176 210.17 231.253 191.368 238.129 185.645C245.005 179.923 222.085 198.725 206.614 198.725C191.143 198.725 186.559 197.09 168.796 191.367C151.033 185.645 182.548 169.295 187.705 157.033C192.862 144.771 198.019 125.151 189.997 117.794C181.975 110.436 192.862 144.771 180.829 154.581C168.796 164.39 160.201 172.565 147.595 185.645C134.989 198.725 118.944 205.265 113.214 218.345C107.484 231.424 129.831 161.938 127.539 139.866C125.247 117.794 125.391 94.904 120.807 89.999C116.223 85.0941 114.36 109.619 117.225 126.786C120.09 143.953 117.798 168.478 113.214 185.645C108.63 202.812 98.8893 228.972 100.608 240.417C102.327 251.862 108.63 287.014 104.619 304.181C100.608 321.348 74.8232 316.443 75.9692 291.101C77.1152 265.759 78.2612 237.964 75.9692 228.154C73.6772 218.345 72.5313 208.535 70.2392 203.63C67.9472 198.725 70.2392 224.067 70.2392 257.584C70.2392 291.101 61.0712 316.443 64.5092 327.07C67.9472 337.698 81.1263 340.15 81.1263 347.508C81.1263 354.865 40.4431 375.143 27.264 382.5C14.085 389.857 15.102 210.482 30 190C35.3427 182.655 64.5092 174.2 70.2392 157.033C75.9693 139.866 75.9692 119.429 75.9692 94.904C75.9692 70.3793 73.6772 117.794 64.5092 130.873C55.3411 143.953 35.792 154.581 33.5 157.033C31.208 159.485 48.9667 114.524 51.2587 94.904C53.0923 79.2082 52.7867 57.27 51.2587 54C47.6297 67.3523 30 124.17 30 126.786C30 130.056 5.08536 182.42 1.07434 195.5C2.22035 242.097 1.07434 354.865 1.07434 354.865V423.534V753.5H67.3362Z" stroke="black"/>
<path d="M1427.5 237.832C1452 342.455 1445 435.072 1427.5 610.587C1421.79 667.868 1407.81 715.014 1391 753.373H1590.86C1586.87 734.812 1582.12 715.072 1575.5 693.485C1553.9 623.05 1570 267.942 1619 106.91L1391 122.346C1395 125.967 1407.9 154.133 1427.5 237.832Z" fill="black" stroke="black"/>
<path d="M1437.06 236.834C1426.58 233.681 1352.18 208.914 1290.73 216.981C1229.29 225.047 1209.43 212.722 1170.2 200.159C1130.97 187.596 1068.9 165.036 1018.32 174.439C977.858 181.961 911.704 204.184 883.685 214.355C903.534 198.641 945.112 171.715 993.93 163.008C1033.73 155.91 1083.78 162.135 1114.42 167.985C1094.12 161.493 1070.34 147.506 1061.68 130.49C1047.47 102.548 1063.96 79.325 1065.1 86.8836C1069.27 114.489 1089.48 148.073 1142.61 149.907C1180.14 151.203 1199.06 179.378 1212.98 187.655C1226.89 195.931 1301.63 187.563 1297.08 175.116C1292.53 162.67 1206.88 116.338 1206.88 116.338C1206.88 116.338 1202.42 104.455 1257.84 127.165C1313.27 149.875 1334.56 180.484 1359.5 177.882C1379.45 175.801 1402.59 160.094 1411.66 152.502L1437.06 236.834Z" fill="black"/>
<path d="M1437.06 236.834C1426.58 233.681 1352.18 208.914 1290.73 216.981C1229.29 225.047 1209.43 212.722 1170.2 200.159C1130.97 187.596 1068.9 165.036 1018.32 174.439C977.858 181.961 911.704 204.184 883.685 214.355C903.534 198.641 945.112 171.715 993.93 163.008C1042.75 154.302 1106.99 165.641 1131.91 171.745C1110.53 169.97 1073.06 152.844 1061.68 130.49C1047.47 102.548 1063.96 79.325 1065.1 86.8836C1069.27 114.489 1089.48 148.073 1142.61 149.907C1180.14 151.203 1199.06 179.378 1212.98 187.655C1226.89 195.931 1301.63 187.563 1297.08 175.116C1292.53 162.67 1206.88 116.338 1206.88 116.338C1206.88 116.338 1202.42 104.455 1257.84 127.165C1313.27 149.875 1334.56 180.484 1359.5 177.882C1379.45 175.801 1402.59 160.094 1411.66 152.502L1437.06 236.834Z" stroke="black"/>
<path d="M1705.7 150.017C1686.55 146.795 1626.48 162.476 1598.84 170.72L1563 227.459C1592.4 215.778 1655.17 192.976 1671.1 195.223C1691.01 198.031 1709.84 216.3 1740.98 225.245C1772.11 234.191 1791.61 240.843 1810.96 248.777C1830.32 256.712 1863.01 256.769 1881.81 258.772C1900.62 260.774 1872.04 239.179 1864.53 242.673C1857.02 246.167 1843.93 235.215 1873.7 223.802C1903.46 212.389 1913.86 215.157 1892.78 212.184C1871.7 209.21 1835.46 225.564 1827.54 232.902C1819.61 240.24 1707.96 195.218 1689.6 183.522C1671.25 171.826 1768.28 170.553 1794.7 162.572C1821.13 154.59 1826.32 167.032 1850.91 170.501C1875.51 173.97 1889.39 172.025 1921.52 177.209C1953.66 182.393 1965.09 186.608 1978.32 196.279C1991.54 205.95 2044.79 208.258 2062.71 196.474C2077.04 187.048 2081.23 164.395 2081.53 154.246C2074.81 163.272 2059.45 182.615 2051.76 187.774C2042.15 194.224 1987.35 178.689 1974.13 169.017C1963.55 161.281 1902.41 161.503 1873.17 162.582C1882.19 159.736 1904.23 154.604 1920.15 156.851C1940.06 159.659 1982.16 133.074 1995.23 105.645C2005.68 83.7024 1976.84 61.2038 1961.11 52.6973C1965.97 57.2851 1975.57 71.9088 1975.12 93.7016C1974.56 120.943 1926.75 123.305 1922.85 131.862C1918.96 140.42 1826.3 128.651 1818.75 137.994C1812.72 145.468 1798.35 141.62 1791.92 138.762C1792.46 135.586 1792.71 125.993 1789.35 113.03C1785.99 100.067 1765.93 87.6109 1756.33 83.0031C1764.38 96.4986 1780.53 124.275 1780.66 127.416C1780.83 131.343 1729.64 154.044 1705.7 150.017Z" fill="black" stroke="black"/>
</svg>
